<?xml version="1.0"?>
<svg xmlns="http://www.w3.org/2000/svg" height="512px" viewBox="0 -57 512.00037 512" width="512px" class=""><g><path d="m494.5 112.5h-98.867188l40.414063-47.140625c4.28125-5 10.511719-7.859375 17.082031-7.859375h11.371094c4.117188.011719 7.488281 3.371094 7.5 7.5v25c0 4.140625 3.355469 7.5 7.5 7.5 4.128906 0 7.5-3.359375 7.5-7.5 0 0 0-.011719 0-.019531v-24.980469c0-12.4375-10.066406-22.5-22.5-22.5h-11.371094c-10.960937 0-21.339844 4.769531-28.46875 13.089844l-48.785156 56.910156h-198.777344c9.800782-18.386719 17.0625-32 22.425782-42.058594 5.144531-9.632812 8.554687-16.019531 10.832031-20.300781 1.855469-3.484375 3.269531-6.121094 4.1875-7.832031.179687-.324219.355469-.652344.542969-.972656.015624-.03125.027343-.042969.050781-.085938 9.339843-16.191406 26.757812-26.25 45.457031-26.25h20.382812c3.011719.023438 5.113282 2.863281 4.351563 5.660156l-18.25 68.421875c-1.0625 4 1.316406 8.117188 5.316406 9.179688.628907.167969 1.28125.257812 1.933594.257812 3.398437 0 6.378906-2.289062 7.25-5.578125v-.011718l18.238281-68.410157c3.316406-12.4375-6.09375-24.519531-18.8125-24.519531h-20.410156c-11.839844 0-23.53125 3.128906-33.78125 9.058594-8.949219 5.183594-16.609375 12.371094-22.335938 20.941406h-33.480468c-12.40625 0-22.5 10.09375-22.5 22.5v22.5c0 11.457031 8.605468 20.933594 19.691406 22.320312-2.503906 4.699219-5.199219 9.746094-8.097656 15.179688h-58.554688c-25.242187 0-49.242187 10.890625-65.851562 29.878906l-24.601563 28.109375c-7.257812 8.296875-11.191406 18.945313-11.07812475 29.902344 0 14.300781 3.53124975 28.542969 10.21874975 41.1875 20.867188 39.464844 49.253906 67.644531 86.777344 86.140625 16.3125 8.039062 33.605469 13.691406 51.496094 16.84375v.4375c0 12.40625 10.09375 22.5 22.5 22.5h33.480468c12.445313 18.609375 33.558594 30 56.121094 30h20.382813c12.8125 0 22.144531-12.136719 18.84375-24.523438l-43.980469-164.910156c-1.066406-4-5.179688-6.382812-9.179688-5.3125-4 1.066406-6.378906 5.175782-5.3125 9.179688l43.976563 164.90625c.761719 2.855468-1.382813 5.660156-4.347656 5.660156h-20.382813c-18.699218 0-36.121094-10.058594-45.464844-26.25-.214843-.371094-.417968-.746094-.625-1.125-1.609374-2.992188-79.292968-148.652344-79.292968-148.652344-1.949219-3.65625-6.488282-5.039062-10.144532-3.089844-3.65625 1.949219-5.039062 6.492188-3.089843 10.148438l2.375 4.453125c-10.1875 2.144531-17.863281 11.199219-17.863281 22.015625v22.5c0 12.40625 10.09375 22.5 22.5 22.5h31.105468l8.09375 15.183594c-11.085937 1.382812-19.695312 10.863281-19.695312 22.316406v6.8125c-15.566406-2.984375-30.621094-8.027344-44.863282-15.046875-34.59375-17.050781-60.808593-43.121094-80.152343-79.699219-5.546875-10.492187-8.480469-22.308594-8.480469-34.253906-.074219-7.285156 2.503906-14.3125 7.257812-19.8125h50.894532c11.21875 0 20.34375-9.125 20.34375-20.339844 0-11.21875-9.125-20.34375-20.34375-20.34375h-12.03125c11.835937-7.945312 25.875-12.316406 40.414062-12.316406h392.964844c1.378906 0 2.5 1.121094 2.5 2.5 0 5.03125-.929688 9.960938-2.773438 14.628906l-49.539062 126.121094c-1.289062 3.269531-3.910156 5.859375-7.1875 7.109375l-57.691406 21.949219-.011719.011718c-22.789063 8.738282-46.449219 15.851563-70.320313 21.109376-4.089843.898437-6.589843 4.953124-5.710937 8.941406.875 3.980468 4.898437 6.625 8.941406 5.710937 24.589844-5.421875 48.96875-12.742187 72.460938-21.761719h.011719l57.648437-21.941406c7.230469-2.75 12.992187-8.449218 15.820313-15.648437l49.539062-126.109375c2.53125-6.429688 3.8125-13.199219 3.8125-20.121094 0-9.640625-7.851562-17.488281-17.5-17.5zm-323.503906-30c-4.136719 0-7.5-3.363281-7.5-7.5v-22.5c0-4.136719 3.363281-7.5 7.5-7.5h25.101562c-2.394531 4.484375-5.816406 10.902344-10.761718 20.171875-2.628907 4.929687-5.691407 10.671875-9.242188 17.328125zm-42.003906 187.5c-4.136719 0-7.5-3.363281-7.5-7.5v-22.5c0-4.136719 3.363281-7.5 7.5-7.5h3.105468l20 37.5zm34.503906 52.5c0-4.136719 3.363281-7.5 7.5-7.5h5.097656c10.128906 18.992188 16.261719 30.496094 20.003906 37.5h-25.101562c-4.136719 0-7.5-3.363281-7.5-7.5zm-85-162.339844c0 2.945313-2.398438 5.339844-5.34375 5.339844h-37.773438l9.347656-10.683594h28.425782c2.945312 0 5.34375 2.398438 5.34375 5.34375zm0 0" data-original="#000000" class="active-path" data-old_color="#91DAF9" fill="#A3D7ED"/><path d="m161.597656 202.5c-4.144531 0-7.5 3.359375-7.5 7.5s3.355469 7.5 7.5 7.5h55c4.144532 0 7.5-3.359375 7.5-7.5s-3.355468-7.5-7.5-7.5zm0 0" data-original="#000000" class="active-path" data-old_color="#91DAF9" fill="#A3D7ED"/></g> </svg>
