<?xml version="1.0" encoding="iso-8859-1"?>
<!-- Generator: Adobe Illustrator 19.0.0, SVG Export Plug-In . SVG Version: 6.00 Build 0)  -->
<svg version="1.1" id="Capa_1" xmlns="http://www.w3.org/2000/svg" xmlns:xlink="http://www.w3.org/1999/xlink" x="0px" y="0px"
	 viewBox="0 0 512 512" style="enable-background:new 0 0 512 512;" xml:space="preserve">
<g>
	<g>
		<path d="M340.023,303.174c-3.899-3.909-10.239-3.909-14.138,0c-3.909,3.899-3.909,10.239,0,14.138
			c3.899,3.909,10.239,3.909,14.138,0C343.933,313.412,343.933,307.073,340.023,303.174z"/>
	</g>
</g>
<g>
	<g>
		<path d="M483.315,56.466c-3.904-3.904-10.236-3.904-14.14,0l-22.317,22.317c-3.904,3.904-3.904,10.236,0,14.14
			c1.953,1.953,4.511,2.929,7.07,2.929s5.118-0.977,7.07-2.929l22.317-22.317C487.219,66.702,487.219,60.371,483.315,56.466z"/>
	</g>
</g>
<g>
	<g>
		<path d="M412.944,28.781c-5.522,0-9.999,4.476-9.999,9.999v37.555c0,5.522,4.476,9.999,9.999,9.999
			c5.522,0,9.999-4.476,9.999-9.999V38.78C422.942,33.257,418.466,28.781,412.944,28.781z"/>
	</g>
</g>
<g>
	<g>
		<path d="M502.001,117.269h-37.555c-5.522,0-9.999,4.476-9.999,9.999c0,5.522,4.476,9.999,9.999,9.999h37.555
			c5.522,0,9.999-4.476,9.999-9.999C512,121.745,507.524,117.269,502.001,117.269z"/>
	</g>
</g>
<g>
	<g>
		<path d="M432.732,107.069c-3.899-3.909-10.232-3.917-14.14-0.019c-1.901,1.896-4.418,2.941-7.087,2.941
			c-2.668,0-5.178-1.041-7.068-2.932c-11.694-11.693-30.723-11.694-42.419,0.002l-7.071,7.076L340.805,99.99
			c-5.665-5.665-13.197-8.786-21.208-8.786c-8.011,0-15.543,3.12-21.208,8.785l-18.586,18.586
			c-27.006-13.947-56.849-21.304-86.829-21.304c-50.743,0-98.982,20.293-135.831,57.142C20.293,191.263,0,239.501,0,290.245
			s20.293,98.982,57.142,135.831c36.849,36.849,85.088,57.142,135.831,57.142c50.743,0,98.982-20.293,135.831-57.142
			c36.849-36.849,57.142-85.088,57.142-135.831c0-29.98-7.358-59.823-21.305-86.827l18.586-18.586
			c5.665-5.666,8.785-13.197,8.785-21.208c0-8.011-3.121-15.543-8.785-21.207l-14.139-14.14l7.071-7.075
			c3.896-3.897,10.238-3.898,14.135,0c5.667,5.666,13.199,8.788,21.208,8.788c8.001,0,15.533-3.118,21.209-8.779
			C436.622,117.311,436.63,110.98,432.732,107.069z M365.949,290.245c0,93.763-79.213,172.976-172.976,172.976
			S19.996,384.008,19.996,290.245S99.21,117.269,192.974,117.269c29.187,0,58.264,7.798,84.091,22.552
			c27.626,15.769,50.564,38.707,66.333,66.333c0,0.001,0.001,0.002,0.001,0.003C358.151,231.981,365.949,261.058,365.949,290.245z
			 M372.016,163.622c0,2.67-1.04,5.18-2.929,7.068l-14.882,14.882c-14.805-22.495-34.066-41.756-56.559-56.56l14.882-14.881
			c1.888-1.889,4.398-2.929,7.068-2.929c2.67,0,5.179,1.04,7.066,2.927l21.207,21.217c0.033,0.033,0.069,0.06,0.102,0.092
			l21.117,21.117C370.976,158.442,372.016,160.952,372.016,163.622z"/>
	</g>
</g>
<g>
	<g>
		<path d="M322.858,343.404c-4.947-2.459-10.945-0.442-13.405,4.501c-22.179,44.61-66.812,72.322-116.48,72.322
			c-5.522,0-9.999,4.476-9.999,9.999c0,5.522,4.477,9.999,10,9.999c28.419,0,56.102-8.02,80.054-23.194
			c23.292-14.756,42.08-35.58,54.332-60.222C329.818,351.865,327.802,345.863,322.858,343.404z"/>
	</g>
</g>
<g>
</g>
<g>
</g>
<g>
</g>
<g>
</g>
<g>
</g>
<g>
</g>
<g>
</g>
<g>
</g>
<g>
</g>
<g>
</g>
<g>
</g>
<g>
</g>
<g>
</g>
<g>
</g>
<g>
</g>
</svg>
