<svg viewBox="-25 0 512 512" xmlns="http://www.w3.org/2000/svg">
    <path style="fill:#3F3A34;" d="m423.429688 108.585938h-52.347657c-6.875-12.25-15.148437-23.8125-24.753906-34.527344-2.761719-3.082032-7.503906-3.34375-10.589844-.578125-3.082031 2.765625-3.34375 7.507812-.578125 10.589843 9.640625 10.757813 17.816406 22.453126 24.472656 34.867188.199219.484375.445313.945312.738282 1.371094 8.582031 16.359375 14.519531 33.960937 17.605468 52.359375-.832031-.273438-1.675781-.519531-2.53125-.742188-.019531-.003906-.042968-.011719-.0625-.015625-.851562-.21875-1.714843-.425781-2.589843-.59375-.554688-.105468-1.105469-.140625-1.648438-.125h-50.328125c-3.570312-34.84375-12.933594-67.3125-27.238281-94.285156-8.929687-16.839844-19.433594-30.871094-31.089844-41.675781 19.265625 6.875 37.324219 17.066406 53.28125 30.230469 1.398438 1.148437 3.085938 1.710937 4.769531 1.710937 2.160157 0 4.304688-.929687 5.789063-2.726563 2.636719-3.195312 2.183594-7.921874-1.015625-10.558593-25.675781-21.179688-56.375-35.304688-88.949219-41.015625-5.628906-7.738282-18.078125-12.871094-33.265625-12.871094-15.167968 0-27.609375 5.125-33.246094 12.851562-40.773437 7.148438-78.746093 27.734376-107.234374 58.203126-28.707032 30.703124-46.707032 70.359374-50.890626 111.941406-7.300781 7.488281-11.726562 17.703125-11.726562 28.773437 0 19.824219 13.8125 36.433594 32.789062 40.324219 13.742188 46.945312 46.410157 85.890625 89.152344 107.96875-51.761718 29.144531-84.515625 84.367188-84.515625 144.4375 0 4.144531 3.359375 7.5 7.5 7.5h316.34375c4.144531 0 7.5-3.355469 7.5-7.5 0-60.117188-32.738281-115.296875-84.515625-144.4375 42.742188-22.078125 75.40625-61.019531 89.152344-107.96875 18.957031-3.898438 32.789062-20.5625 32.789062-40.328125 0-9.6875-3.390624-18.714844-9.132812-25.839844h26.363281c21.324219 0 38.671875-17.347656 38.671875-38.671875 0-21.320312-17.34375-38.667968-38.667968-38.667968zm-58.703126 77.605468c.492188 5.015625.757813 10.082032.789063 15.132813-13.707031-.175781-26.679687-5.730469-36.257813-15.132813zm-59-15h-205.253906c6.910156-63.839844 34.476563-117.429687 70.660156-137.632812 6.105469 6.835937 17.855469 11.269531 31.96875 11.269531 14.109376 0 25.859376-4.433594 31.964844-11.269531 36.175782 20.203125 63.75 73.808594 70.660156 137.632812zm-264.261718 15h35.476562c-9.578125 9.402344-22.550781 14.957032-36.253906 15.132813.03125-5.050781.285156-10.113281.777344-15.132813zm161.632812-171.191406c13.875 0 21.5 5.566406 21.5 7.414062 0 1.847657-7.625 7.414063-21.5 7.414063s-21.5-5.566406-21.5-7.414063c0-1.847656 7.625-7.414062 21.5-7.414062zm-59.226562 20.082031c-11.703125 10.808594-22.25 24.867188-31.214844 41.757813-14.324219 26.984375-23.703125 59.476562-27.273438 94.351562h-50.449218c-.519532-.007812-1.042969.03125-1.570313.136719-.859375.164063-1.703125.363281-2.539062.582031-.027344.007813-.054688.015625-.082031.019532-.847657.222656-1.691407.464843-2.519532.738281 10.726563-63.992188 55.339844-116.363281 115.648438-137.585938zm-128.871094 176.6875c0-7.710937 3.382812-14.761719 8.835938-19.601562.019531-.015625.035156-.027344.054687-.042969.359375-.316406.726563-.617188 1.101563-.914062.09375-.070313.183593-.144532.273437-.214844.261719-.203125.53125-.390625.800781-.582032-.261718 3.960938-.398437 7.9375-.398437 11.898438 0 11.09375 1.035156 21.949219 2.992187 32.488281-8.207031-4.441406-13.660156-13.101562-13.660156-23.03125zm338.585938 285.230469h-50.421876v-52.296875c0-4.144531-3.355468-7.5-7.5-7.5-4.140624 0-7.5 3.355469-7.5 7.5v52.296875h-170.136718v-52.296875c0-4.144531-3.359375-7.5-7.5-7.5-4.144532 0-7.5 3.355469-7.5 7.5v52.296875h-50.414063c2.777344-55.496094 36.1875-105.4375 86.820313-129.082031 5.386718 2.078125 10.894531 3.898437 16.519531 5.449219 5.066406 21.5625 24.644531 37.359374 47.144531 37.359374 22.503906 0 42.078125-15.796874 47.148438-37.359374 5.621094-1.550782 11.132812-3.371094 16.515625-5.445313 50.648437 23.644531 84.050781 73.546875 86.824219 129.078125zm-180.398438-119.792969c9.726562 1.65625 19.71875 2.53125 29.910156 2.53125 10.195313 0 20.183594-.875 29.914063-2.53125-5.546875 11.03125-17.035157 18.519531-29.914063 18.519531-12.875 0-24.363281-7.488281-29.910156-18.519531zm29.910156-12.46875c-84.84375 0-154.695312-65.390625-161.816406-148.425781 22.15625-.414062 42.785156-11.769531 55.039062-30.121094h213.558594c12.25 18.351563 32.878906 29.707032 55.039063 30.121094-7.125 83.035156-76.972657 148.425781-161.820313 148.425781zm174.441406-129.953125c1.957032-10.53125 2.988282-21.382812 2.988282-32.472656 0-3.964844-.140625-7.941406-.40625-11.90625.28125.199219.558594.394531.832031.605469.066406.050781.136719.105469.203125.160156.390625.308594.777344.621094 1.152344.953125.019531.015625.042968.03125.0625.050781 5.449218 4.839844 8.828125 11.882813 8.828125 19.589844-.003907 9.902344-5.457031 18.570313-13.660157 23.019531zm45.890626-63.859375h-30.542969c-2.691407-16.453125-7.480469-32.324219-14.242188-47.339843h44.785157c13.050781 0 23.667968 10.617187 23.667968 23.671874 0 13.050782-10.617187 23.667969-23.667968 23.667969zm0 0"/>
    <path style="fill:#3F3A34;" d="m223.59375 233.675781c-3.589844-2.0625-8.171875-.824219-10.238281 2.765625-2.105469 3.664063-6.035157 5.941406-10.257813 5.941406-4.21875 0-8.148437-2.277343-10.253906-5.941406-2.066406-3.59375-6.648438-4.828125-10.242188-2.765625-3.589843 2.066407-4.828124 6.648438-2.761718 10.242188 4.773437 8.304687 13.6875 13.464843 23.257812 13.464843 9.574219 0 18.488282-5.160156 23.261719-13.464843 2.066406-3.59375.828125-8.175781-2.765625-10.242188zm0 0"/>
    <path style="fill:#3F3A34;" d="m266.789062 228.105469c4.140626 0 7.5-3.359375 7.5-7.5v-11.355469c0-4.144531-3.359374-7.5-7.5-7.5-4.144531 0-7.5 3.355469-7.5 7.5v11.355469c0 4.140625 3.355469 7.5 7.5 7.5zm0 0"/>
    <path style="fill:#3F3A34;" d="m139.410156 228.105469c4.140625 0 7.5-3.359375 7.5-7.5v-11.355469c0-4.144531-3.359375-7.5-7.5-7.5s-7.5 3.355469-7.5 7.5v11.355469c0 4.140625 3.359375 7.5 7.5 7.5zm0 0"/>
    <path style="fill:#3F3A34;" d="m272.464844 234.570312h-11.355469c-4.140625 0-7.5 3.355469-7.5 7.5 0 4.144532 3.359375 7.5 7.5 7.5h11.355469c4.144531 0 7.5-3.355468 7.5-7.5 0-4.144531-3.355469-7.5-7.5-7.5zm0 0"/>
    <path style="fill:#3F3A34;" d="m145.089844 234.570312h-11.355469c-4.144531 0-7.5 3.355469-7.5 7.5 0 4.144532 3.355469 7.5 7.5 7.5h11.355469c4.140625 0 7.5-3.355468 7.5-7.5 0-4.144531-3.359375-7.5-7.5-7.5zm0 0"/>
    <path style="fill:#3F3A34;" d="m237.199219 83.699219h-68.199219c-13.453125 0-24.402344 10.945312-24.402344 24.398437v22.257813c0 13.453125 10.949219 24.398437 24.402344 24.398437h68.199219c13.453125 0 24.398437-10.945312 24.398437-24.398437v-22.257813c0-13.453125-10.945312-24.398437-24.398437-24.398437zm9.398437 46.65625c0 5.183593-4.214844 9.398437-9.398437 9.398437h-68.199219c-5.183594 0-9.402344-4.21875-9.402344-9.398437v-22.257813c0-5.183594 4.21875-9.398437 9.402344-9.398437h68.199219c5.183593 0 9.398437 4.214843 9.398437 9.398437zm0 0"/>
</svg>