<?xml version="1.0" encoding="iso-8859-1"?>
<!-- Generator: Adobe Illustrator 19.0.0, SVG Export Plug-In . SVG Version: 6.00 Build 0)  -->
<svg version="1.1" id="Capa_1" xmlns="http://www.w3.org/2000/svg" xmlns:xlink="http://www.w3.org/1999/xlink" x="0px" y="0px"
	 viewBox="0 0 512 512" style="enable-background:new 0 0 512 512;" xml:space="preserve">
<g>
	<g>
		<path style="fill:#3F3A34;" d="M435.145,214.096c-4.141,0-7.497,3.357-7.497,7.497v172.585c0,50.386-40.992,91.378-91.378,91.378h-7.293
			c-4.141,0-7.497,3.357-7.497,7.497s3.357,7.497,7.497,7.497h7.293c58.654,0,106.373-47.719,106.373-106.373V221.594
			C442.642,217.453,439.285,214.096,435.145,214.096z"/>
	</g>
</g>
<g>
	<g>
		<path style="fill:#3F3A34;" d="M188.209,485.557h-12.477c-25.063,0-48.442-9.946-65.832-28.005c-2.871-2.982-7.616-3.072-10.6-0.2
			c-2.983,2.872-3.072,7.617-0.2,10.6c20.242,21.022,47.458,32.599,76.633,32.599h12.477c4.141,0,7.496-3.357,7.496-7.497
			S192.349,485.557,188.209,485.557z"/>
	</g>
</g>
<g>
	<g>
		<path style="fill:#3F3A34;" d="M86.609,414.448c-1.495-6.607-2.254-13.426-2.254-20.268V144.228c0-4.141-3.357-7.497-7.497-7.497
			c-4.141,0-7.497,3.357-7.497,7.497v249.951c0,7.953,0.883,15.887,2.624,23.579c0.788,3.482,3.88,5.844,7.306,5.844
			c0.548,0,1.105-0.06,1.662-0.186C84.99,422.501,87.524,418.486,86.609,414.448z"/>
	</g>
</g>
<g>
	<g>
		<circle style="fill:#3F3A34;" cx="169.744" cy="320.652" r="15.886"/>
	</g>
</g>
<g>
	<g>
		<circle style="fill:#3F3A34;" cx="342.256" cy="320.652" r="15.886"/>
	</g>
</g>
<g>
	<g>
		<path style="fill:#3F3A34;" d="M277.34,333.426c-4.141,0-7.497,3.357-7.497,7.497v0.979c0,7.632-6.209,13.841-13.841,13.841s-13.841-6.209-13.841-13.841
			v-0.979c0-4.141-3.357-7.497-7.497-7.497c-4.141,0-7.497,3.357-7.497,7.497v0.979c0,15.901,12.936,28.836,28.836,28.836
			c15.901,0,28.836-12.936,28.836-28.836v-0.979C284.837,336.783,281.48,333.426,277.34,333.426z"/>
	</g>
</g>
<g>
	<g>
		<path style="fill:#3F3A34;" d="M108.3,164.962c-4.141,0-7.497,3.357-7.497,7.497v111.448c0,4.141,3.357,7.497,7.497,7.497
			c4.142,0,7.497-3.357,7.497-7.497V172.459C115.797,168.318,112.44,164.962,108.3,164.962z"/>
	</g>
</g>
<g>
	<g>
		<path style="fill:#3F3A34;" d="M401.995,312.312c-3.999-1.077-8.111,1.294-9.188,5.291c-11.614,43.154-50.978,73.292-95.727,73.292h-82.159
			c-43.988,0-82.113-28.253-94.87-70.301c-1.203-3.964-5.39-6.2-9.351-4.998c-3.963,1.202-6.201,5.388-4.998,9.351
			c6.958,22.934,21.386,43.545,40.626,58.036c19.898,14.986,43.617,22.907,68.593,22.907h82.159
			c51.516,0,96.833-34.702,110.206-84.391C408.363,317.501,405.994,313.388,401.995,312.312z"/>
	</g>
</g>
<g>
	<g>
		<path style="fill:#3F3A34;" d="M434.919,200.769c-4.141,0-7.497,3.357-7.497,7.497v42.96c-71.59,4.315-155.173-48.575-156.033-49.126
			c-2.652-1.699-6.084-1.559-8.589,0.349c-2.506,1.908-3.551,5.18-2.616,8.188l5.092,16.388
			c-73.264-1.861-163.938-72.35-180.647-85.853C86.495,71.28,143.933,14.995,214.268,14.995h83.466
			c71.509,0,129.686,58.177,129.686,129.686v14.267c0,4.141,3.357,7.497,7.497,7.497c4.141,0,7.497-3.357,7.497-7.497v-14.267
			C442.415,64.904,377.511,0,297.734,0h-83.466C134.491,0,69.587,64.904,69.587,144.681c0,2.206,0.972,4.301,2.656,5.725
			c1.167,0.986,29.021,24.432,67.947,47.573c49.25,29.278,92.231,44.082,127.932,44.08c2.62,0,5.206-0.08,7.747-0.24
			c2.296-0.144,4.398-1.334,5.704-3.228c1.305-1.894,1.668-4.283,0.986-6.479l-2.333-7.509
			c27.54,15.056,84.221,41.879,138.571,41.875c5.687-0.001,11.361-0.295,16.962-0.926c3.792-0.429,6.657-3.636,6.657-7.451v-49.836
			C442.416,204.125,439.06,200.769,434.919,200.769z"/>
	</g>
</g>
<g>
	<g>
		<path style="fill:#3F3A34;" d="M221.143,472.773c-4.141,0-7.497,3.357-7.497,7.497v22.668c0,4.141,3.357,7.497,7.497,7.497s7.497-3.357,7.497-7.497
			v-22.668C228.64,476.13,225.283,472.773,221.143,472.773z"/>
	</g>
</g>
<g>
	<g>
		<path style="fill:#3F3A34;" d="M290.859,472.773c-4.141,0-7.497,3.357-7.497,7.497v22.668c0,4.141,3.357,7.497,7.497,7.497s7.497-3.357,7.497-7.497
			v-22.668C298.357,476.13,295,472.773,290.859,472.773z"/>
	</g>
</g>
<g>
	<g>
		<path style="fill:#3F3A34;" d="M309.644,419.575c-6.825-4.921-14.825-8.142-23.137-9.312l-0.811-0.114c-0.693-0.097-1.423-0.199-2.082-0.299
			c-0.018-0.921-0.018-1.97-0.018-2.859v-6.385c0-4.141-3.357-7.497-7.497-7.497h-40.193c-4.141,0-7.497,3.357-7.497,7.497v6.385
			c0,0.888,0,1.938-0.018,2.859c-0.661,0.1-1.391,0.202-2.082,0.299l-0.811,0.114c-8.312,1.17-16.314,4.39-23.137,9.312
			c-13.554,9.777-21.647,25.582-21.647,42.279v42.649c0,4.141,3.357,7.497,7.497,7.497h135.582c4.141,0,7.497-3.357,7.499-7.497
			v-42.649C331.291,445.157,323.198,429.352,309.644,419.575z M316.295,497.005H195.707v-35.151
			c0-11.892,5.765-23.151,15.424-30.117c4.855-3.503,10.545-5.794,16.455-6.626l0.797-0.112c5.177-0.725,9.268-1.296,12.21-4.891
			c2.62-3.201,2.796-6.952,2.808-12.005h25.201c0.012,5.053,0.188,8.804,2.808,12.005c2.942,3.596,7.033,4.168,12.21,4.891
			l0.797,0.112c5.909,0.832,11.599,3.123,16.455,6.626c9.658,6.966,15.424,18.225,15.424,30.117V497.005z"/>
	</g>
</g>
<g>
	<g>
		<path style="fill:#3F3A34;" d="M284.581,412.348c-2.075-3.583-6.664-4.804-10.246-2.729c-18.397,10.656-33.852,1.073-34.596,0.597
			c-3.446-2.254-8.072-1.307-10.353,2.131c-2.288,3.451-1.346,8.103,2.105,10.391c0.628,0.416,10.666,6.909,25.059,6.909
			c7.492,0,16.166-1.76,25.302-7.054C285.435,420.518,286.657,415.93,284.581,412.348z"/>
	</g>
</g>
<g>
	<g>
		<path style="fill:#3F3A34;" d="M215.58,273.915c-4.141,0-7.497,3.357-7.497,7.497v21.555c0,4.141,3.357,7.497,7.497,7.497
			c4.141,0,7.497-3.357,7.497-7.497v-21.555C223.077,277.272,219.72,273.915,215.58,273.915z"/>
	</g>
</g>
<g>
	<g>
		<path style="fill:#3F3A34;" d="M296.422,273.915c-4.141,0-7.497,3.357-7.497,7.497v21.555c0,4.141,3.357,7.497,7.497,7.497
			c4.141,0,7.497-3.357,7.497-7.497v-21.555C303.92,277.272,300.563,273.915,296.422,273.915z"/>
	</g>
</g>
<g>
	<g>
		<path style="fill:#3F3A34;" d="M233.51,251.478h-30.09c-4.141,0-7.497,3.357-7.497,7.497c0,4.141,3.357,7.497,7.497,7.497h30.09
			c4.141,0,7.497-3.357,7.497-7.497C241.007,254.834,237.65,251.478,233.51,251.478z"/>
	</g>
</g>
<g>
	<g>
		<path style="fill:#3F3A34;" d="M308.582,251.478h-30.09c-4.141,0-7.497,3.357-7.497,7.497c0,4.141,3.357,7.497,7.497,7.497h30.09
			c4.141,0,7.497-3.357,7.497-7.497C316.08,254.834,312.723,251.478,308.582,251.478z"/>
	</g>
</g>
<g>
	<g>
		<path style="fill:#3F3A34;" d="M107.433,248.822h-1.725c-20.183,0-36.603,16.42-36.603,36.603c0,6.73,1.844,13.31,5.333,19.033
			c1.413,2.317,3.881,3.596,6.409,3.596c1.331,0,2.677-0.354,3.896-1.097c3.536-2.156,4.654-6.769,2.499-10.305
			c-2.055-3.37-3.141-7.252-3.141-11.226c0-9.917,6.714-18.294,15.835-20.825v22.662c0,4.141,3.357,7.497,7.497,7.497
			c4.141,0,7.497-3.357,7.497-7.497V256.32C114.93,252.179,111.574,248.822,107.433,248.822z"/>
	</g>
</g>
<g>
	<g>
		<path style="fill:#3F3A34;" d="M423.859,253.053c-3.652-1.951-8.194-0.573-10.147,3.079c-1.951,3.652-0.573,8.194,3.079,10.147
			c6.854,3.663,11.11,10.758,11.11,18.519c0,4.58-1.448,8.93-4.188,12.579c-2.486,3.312-1.817,8.011,1.494,10.497
			c1.351,1.014,2.93,1.503,4.496,1.503c2.277,0,4.528-1.034,6-2.997c4.704-6.266,7.192-13.729,7.192-21.583
			C442.895,271.492,435.602,259.329,423.859,253.053z"/>
	</g>
</g>
<g>
	<g>
		<path style="fill:#3F3A34;" d="M405.236,252.168c-4.141,0-7.497,3.357-7.497,7.497v26.558c0,4.141,3.357,7.497,7.497,7.497s7.497-3.357,7.497-7.497
			v-26.558C412.733,255.525,409.376,252.168,405.236,252.168z"/>
	</g>
</g>
<g>
	<g>
		<path style="fill:#3F3A34;" d="M410.309,279.27c-14.06,0-25.498,11.438-25.498,25.498s11.438,25.498,25.498,25.498s25.498-11.438,25.498-25.498
			S424.368,279.27,410.309,279.27z M410.309,315.271c-5.792,0-10.503-4.711-10.503-10.503c0-5.792,4.711-10.503,10.503-10.503
			s10.503,4.711,10.503,10.503C420.813,310.56,416.1,315.271,410.309,315.271z"/>
	</g>
</g>
<g>
	<g>
		<path style="fill:#3F3A34;" d="M101.693,279.27c-14.06,0-25.498,11.438-25.498,25.498s11.439,25.498,25.498,25.498c14.06,0,25.498-11.438,25.498-25.498
			S115.753,279.27,101.693,279.27z M101.693,315.271c-5.792,0-10.503-4.711-10.503-10.503c0-5.792,4.712-10.503,10.503-10.503
			c5.792,0,10.503,4.711,10.503,10.503C112.196,310.56,107.485,315.271,101.693,315.271z"/>
	</g>
</g>
<g>
</g>
<g>
</g>
<g>
</g>
<g>
</g>
<g>
</g>
<g>
</g>
<g>
</g>
<g>
</g>
<g>
</g>
<g>
</g>
<g>
</g>
<g>
</g>
<g>
</g>
<g>
</g>
<g>
</g>
</svg>
