<?xml version="1.0" encoding="iso-8859-1"?>
<!-- Generator: Adobe Illustrator 19.0.0, SVG Export Plug-In . SVG Version: 6.00 Build 0)  -->
<svg version="1.1" id="Layer_1" xmlns="http://www.w3.org/2000/svg" xmlns:xlink="http://www.w3.org/1999/xlink" x="0px" y="0px"
	 viewBox="0 0 512 512" style="enable-background:new 0 0 512 512;" xml:space="preserve">
<g>
	<g>
		<path style="fill:#3F3A34;" d="M345.387,190.255h-11.432c-4.54,0-8.221,3.681-8.221,8.221s3.681,8.221,8.221,8.221h11.432
			c4.54,0,8.221-3.681,8.221-8.221S349.928,190.255,345.387,190.255z"/>
	</g>
</g>
<g>
	<g>
		<path style="fill:#3F3A34;" d="M446.675,164.077c-5.917-5.917-13.785-9.177-22.155-9.177c-8.369,0-16.238,3.259-22.154,9.177
			c-3.211,3.211-3.211,8.416,0,11.626c3.211,3.212,8.416,3.211,11.626,0c2.812-2.812,6.551-4.361,10.528-4.361
			c3.977,0,7.716,1.549,10.528,4.361c1.605,1.605,3.709,2.408,5.813,2.408s4.208-0.804,5.814-2.408
			C449.885,172.492,449.885,167.286,446.675,164.077z"/>
	</g>
</g>
<g>
	<g>
		<path style="fill:#3F3A34;" d="M361.827,164.077c-12.217-12.217-32.093-12.217-44.31,0c-3.211,3.211-3.211,8.416,0,11.626
			c3.211,3.211,8.416,3.211,11.626,0c2.812-2.812,6.552-4.361,10.528-4.361s7.716,1.549,10.528,4.361
			c1.605,1.605,3.709,2.408,5.813,2.408c2.104,0,4.209-0.804,5.815-2.408C365.037,172.492,365.037,167.286,361.827,164.077z"/>
	</g>
</g>
<g>
	<g>
		<path style="fill:#3F3A34;" d="M430.237,190.255h-11.432c-4.54,0-8.221,3.681-8.221,8.221s3.681,8.221,8.221,8.221h11.432
			c4.54,0,8.221-3.681,8.221-8.221S434.777,190.255,430.237,190.255z"/>
	</g>
</g>
<g>
	<g>
		<path style="fill:#3F3A34;" d="M512,181.634c0-15.365-11.443-28.1-26.255-30.157l-0.464-4.801l5.873,1.034c0.482,0.086,0.961,0.126,1.435,0.126
			c3.915,0,7.385-2.808,8.086-6.797c0.787-4.472-2.2-8.735-6.671-9.522l-10.538-1.855c-0.441-2.899-0.99-5.77-1.671-8.602
			l3.085,0.504c0.449,0.073,0.894,0.109,1.336,0.109c3.956,0,7.445-2.864,8.104-6.897c0.732-4.481-2.306-8.707-6.787-9.439
			l-11.719-1.915c-5.733-12.896-14.122-24.573-24.781-34.253c-18.908-17.17-43.39-26.627-68.939-26.627
			c-19.195,0-37.929,5.349-54.174,15.469c-3.854,2.401-5.031,7.47-2.631,11.326c2.401,3.854,7.47,5.031,11.326,2.631
			c13.634-8.493,29.361-12.983,45.479-12.983c21.452,0,42.01,7.94,57.884,22.358c6.237,5.664,11.534,12.151,15.81,19.224
			c-3.419,0.529-6.266,3.195-6.854,6.796c-0.732,4.481,2.306,8.707,6.787,9.439l8.148,1.332c0.92,2.792,1.689,5.64,2.321,8.528
			c-4.194-0.356-8.037,2.54-8.781,6.763c-0.787,4.472,2.2,8.735,6.671,9.522l4.393,0.774l6.119,63.317
			c1.683,17.392-3.706,34.342-14.873,47.455c-2.732-2.287-5.623-5.211-9.017-8.717c-7.968-8.228-16.998-17.555-31.143-23.381
			c-8.674-3.568-16.072-4.216-22.133-3.458v-20.302c0-4.54-3.681-8.221-8.221-8.221s-8.221,3.681-8.221,8.221v25.417
			c-0.412-0.271-0.832-0.532-1.26-0.779c-7.059-4.085-18.879-7.555-35.095-0.877c-14.147,5.825-23.179,15.152-31.147,23.381
			c-3.394,3.506-6.287,6.431-9.018,8.718c-11.16-13.107-16.548-30.058-14.873-47.459l6.119-63.315l4.396-0.774
			c4.471-0.787,7.458-5.05,6.671-9.522c-0.743-4.224-4.589-7.119-8.783-6.763c0.635-2.886,1.411-5.734,2.334-8.53l8.137-1.33
			c4.481-0.732,7.52-4.958,6.787-9.439c-0.588-3.594-3.424-6.258-6.836-6.794c3.616-5.988,7.952-11.56,12.967-16.542
			c3.221-3.2,3.238-8.405,0.037-11.626c-3.201-3.222-8.405-3.238-11.626-0.037c-9.037,8.979-16.243,19.546-21.365,31.053
			l-11.775,1.924c-4.481,0.732-7.52,4.958-6.787,9.439c0.659,4.033,4.147,6.897,8.104,6.897c0.441,0,0.887-0.035,1.336-0.109
			l3.111-0.509c-0.686,2.837-1.251,5.708-1.694,8.606l-10.541,1.856c-4.471,0.787-7.458,5.05-6.671,9.522
			c0.703,3.99,4.171,6.797,8.086,6.797c0.474,0,0.953-0.042,1.435-0.126l5.871-1.034l-0.464,4.8
			c-14.809,2.055-26.251,14.792-26.251,30.158c0,13.411,8.608,24.812,20.71,28.87c-0.625,18.164,4.835,35.708,15.46,50.148
			c-2.462,0.776-4.475,2.681-5.327,5.221c-1.124,3.35,0.018,7.042,2.836,9.173c4.058,3.068,8.776,5.975,13.833,8.546
			c0.019,0.181,0.043,0.368,0.065,0.551c-21.443,13.32-34.535,36.606-34.535,62.156v124.646c0,4.54,3.681,8.221,8.221,8.221h43.325
			c0.011,0,0.021,0.001,0.032,0.001c0.011,0,0.021-0.001,0.032-0.001h65.222c0.011,0,0.021,0.001,0.032,0.001
			s0.021-0.001,0.032-0.001h65.21c0.011,0,0.021,0.001,0.032,0.001c0.011,0,0.021-0.001,0.032-0.001h43.335
			c4.54,0,8.221-3.681,8.221-8.221V346.302c0-14.392-4.185-28.334-12.104-40.322c-2.503-3.789-7.603-4.832-11.391-2.328
			c-3.788,2.503-4.831,7.603-2.328,11.391c6.137,9.291,9.381,20.099,9.381,31.258v116.424H455.59V347.057
			c0-4.54-3.681-8.221-8.221-8.221s-8.221,3.681-8.221,8.221v115.666h-48.831V357.2l18.901-22.445l0.291,0.931
			c0.662,2.117,2.15,3.877,4.128,4.88c1.979,1.004,4.279,1.165,6.375,0.448c22.89-7.816,34.891-24.963,40.519-40.532
			c0.521,0.102,1.045,0.171,1.57,0.171c2.64,0,5.231-1.268,6.82-3.621c2.542-3.762,1.552-8.872-2.211-11.414
			c-0.744-0.503-1.526-0.972-2.296-1.452c0.022-0.192,0.047-0.387,0.067-0.577c5.056-2.569,9.773-5.476,13.831-8.545
			c2.818-2.131,3.959-5.824,2.836-9.173c-0.852-2.539-2.864-4.445-5.326-5.221c10.632-14.446,16.093-31.993,15.463-50.15
			C503.391,206.444,512,195.044,512,181.634z M274.431,193.004c-3.523-2.546-5.797-6.692-5.797-11.37
			c0-5.62,3.333-10.465,8.122-12.696L274.431,193.004z M373.877,462.723h-48.844V347.057c0-4.54-3.681-8.221-8.221-8.221
			s-8.221,3.681-8.221,8.221v115.666h-26.914V346.299c0-17.943,8.328-34.449,22.255-45.08c5.741,15.369,17.721,32.103,40.25,39.795
			c2.099,0.717,4.398,0.556,6.376-0.448c1.977-1.003,3.466-2.763,4.128-4.88l0.29-0.931l18.901,22.445V462.723z M422.483,322.07
			l-2.042-6.535c-0.896-2.866-3.282-5.016-6.226-5.608c-2.943-0.591-5.976,0.467-7.91,2.763l-24.207,28.746l-24.207-28.746
			c-1.935-2.297-4.966-3.354-7.91-2.763c-2.944,0.592-5.331,2.742-6.226,5.608l-2.045,6.544
			c-14.912-8.01-21.225-21.414-23.901-31.304c12.58,3.7,29.913,6.231,45.744-0.297c7.47-3.08,13.669-7.783,18.543-14.047
			c4.87,6.265,11.067,10.966,18.535,14.046c7.086,2.922,14.472,4.03,21.6,4.03c8.774,0,17.145-1.68,24.085-3.718
			C443.608,300.675,437.284,314.081,422.483,322.07z M453.198,270.776c-17.148,7.702-34.456,9.382-46.297,4.5
			c-7.99-3.295-13.591-9.374-17.127-18.587c-1.22-3.178-4.271-5.276-7.674-5.276c0,0,0,0-0.001,0c-3.403,0-6.455,2.097-7.674,5.275
			c-3.538,9.213-9.143,15.294-17.135,18.589c-11.843,4.882-29.152,3.2-46.292-4.499c-0.179-0.08-0.357-0.161-0.535-0.242
			c5.493-3.674,10.203-8.539,14.834-13.323c7.185-7.421,14.615-15.094,25.596-19.615c8.048-3.316,14.979-3.348,20.596-0.096
			c1.5,0.868,2.727,2.06,3.651,3.543c1.498,2.403,4.127,3.866,6.96,3.873c0.005,0,0.012,0,0.019,0c2.825,0,5.452-1.45,6.957-3.842
			c1.012-1.607,2.412-2.926,4.06-3.818c5.527-3.003,12.312-2.891,20.168,0.341c10.975,4.521,18.405,12.194,25.59,19.615
			c4.631,4.783,9.342,9.649,14.837,13.322C453.553,270.616,453.376,270.696,453.198,270.776z M489.758,193.004l-2.325-24.065
			c4.79,2.231,8.125,7.076,8.125,12.696C495.557,186.311,493.282,190.457,489.758,193.004z"/>
	</g>
</g>
<g>
	<g>
		<path style="fill:#3F3A34;" d="M208.283,320.646c-3.994-2.156-8.984-0.665-11.139,3.331c-2.156,3.996-0.665,8.983,3.331,11.139
			c18.411,9.936,29.85,29.092,29.85,49.994v77.614h-26.923v-76.862c0-4.54-3.681-8.221-8.221-8.221s-8.221,3.681-8.221,8.221v76.861
			H72.841v-76.861c0-4.54-3.681-8.221-8.221-8.221s-8.221,3.681-8.221,8.221v76.861H29.484v-30.806c0-4.54-3.681-8.221-8.221-8.221
			s-8.221,3.681-8.221,8.221v39.027c0,4.54,3.681,8.221,8.221,8.221h217.282c4.54,0,8.221-3.681,8.221-8.221V385.11
			C246.766,358.157,232.02,333.456,208.283,320.646z"/>
	</g>
</g>
<g>
	<g>
		<path style="fill:#3F3A34;" d="M171.96,345.364c-4.54,0-8.221,3.681-8.221,8.221c0,18.656-15.177,33.832-33.831,33.832
			c-18.656,0-33.832-15.177-33.832-33.832c0-4.54-3.681-8.221-8.221-8.221s-8.221,3.681-8.221,8.221
			c0,27.722,22.553,50.275,50.275,50.275c27.721,0,50.274-22.553,50.274-50.275C180.181,349.045,176.5,345.364,171.96,345.364z"/>
	</g>
</g>
<g>
	<g>
		<path style="fill:#3F3A34;" d="M259.806,217.617c0.002-15.365-11.441-28.101-26.253-30.158l-1.57-16.242c-2.456-25.427-14.226-48.888-33.137-66.061
			c-4.815-4.373-9.995-8.238-15.458-11.581c0.286-2.256,0.437-4.536,0.437-6.828c0-29.73-24.187-53.917-53.917-53.917
			c-25.507,0-47.725,18.11-52.831,43.06c-0.911,4.448,1.958,8.792,6.406,9.703c4.448,0.911,8.792-1.958,9.702-6.406
			c3.547-17.334,18.991-29.913,36.722-29.913c20.28,0,36.838,16.196,37.446,36.33c-11.819-4.636-24.495-7.078-37.449-7.078
			c-25.545,0-50.029,9.458-68.942,26.63c-18.913,17.173-30.681,40.634-33.138,66.062l-1.57,16.241
			C11.443,189.511,0,202.25,0,217.617c0,13.413,8.612,24.816,20.717,28.872c-0.86,26.444,11.517,52.016,33.072,67.675l4.512,3.279
			c-26.896,11.112-45.259,37.632-45.259,67.668v22.984c0,4.54,3.681,8.221,8.221,8.221s8.221-3.681,8.221-8.221v-22.984
			c0-26.964,19.068-50.278,45.399-55.62l18.024,13.095c11.064,8.038,24.03,12.058,36.996,12.058s25.932-4.02,36.996-12.058
			l39.119-28.422c21.555-15.66,33.933-41.232,33.071-67.678C251.194,242.429,259.806,231.028,259.806,217.617z M22.241,228.989
			c-3.523-2.546-5.799-6.693-5.799-11.372c0-5.622,3.336-10.467,8.125-12.698L22.241,228.989z M72.015,117.329
			c15.88-14.419,36.439-22.361,57.889-22.361s42.009,7.942,57.889,22.361c15.88,14.419,25.761,34.118,27.824,55.47l0.185,1.917
			c-33.885-5.832-53.63-42.382-53.836-42.772c-1.412-2.69-4.192-4.381-7.229-4.4c-0.016,0-0.033,0-0.049,0
			c-3.018,0-5.795,1.654-7.233,4.312c-0.224,0.413-22.572,39.898-102.096,32.874C48.871,146.517,58.157,129.912,72.015,117.329z
			 M43.393,181.05c65.029,5.882,97.2-16.922,110.585-31.036c10.086,14.212,31.577,38.181,63.45,41.523l1.523,15.753l-16.297,14.058
			c-5.624-11.751-17.631-19.888-31.504-19.888c-16.415,0-30.212,11.393-33.918,26.684h-14.657
			c-3.707-15.292-17.503-26.684-33.918-26.684c-13.873,0-25.88,8.137-31.504,19.888l-16.296-14.06L43.393,181.05z M189.613,236.366
			c0,10.18-8.283,18.463-18.463,18.463s-18.463-8.283-18.463-18.463c0-10.18,8.283-18.463,18.463-18.463
			S189.613,226.186,189.613,236.366z M107.12,236.366c0,10.18-8.283,18.463-18.462,18.463c-10.18,0-18.463-8.283-18.463-18.463
			c0-10.18,8.283-18.463,18.463-18.463C98.837,217.903,107.12,226.186,107.12,236.366z M196.355,300.861l-39.119,28.422
			c-16.348,11.878-38.316,11.878-54.664,0l-39.12-28.422c-18.234-13.247-28.214-35.414-26.046-57.848l1.515-15.679l15.064,12.996
			c1.975,17.385,16.768,30.939,34.673,30.939c16.415,0,30.211-11.393,33.918-26.684h8.905v15.458h-6.074
			c-4.54,0-8.221,3.681-8.221,8.221s3.681,8.221,8.221,8.221h14.295c4.54,0,8.221-3.681,8.221-8.221v-5.874
			c6.175,5.517,14.315,8.879,23.227,8.879c17.905,0,32.698-13.554,34.673-30.939l15.064-12.996l1.515,15.679
			C224.571,265.447,214.589,287.614,196.355,300.861z M237.566,228.985l-2.325-24.064c4.789,2.231,8.125,7.076,8.125,12.695
			C243.366,222.294,241.09,226.439,237.566,228.985z"/>
	</g>
</g>
<g>
	<g>
		<path style="fill:#3F3A34;" d="M154.585,285.822c-3.212-3.211-8.417-3.21-11.628,0c-7.199,7.196-18.909,7.198-26.106,0
			c-3.211-3.211-8.416-3.211-11.626,0c-3.211,3.211-3.211,8.416,0,11.626c6.805,6.805,15.741,10.206,24.68,10.206
			c8.936,0,17.876-3.403,24.68-10.206C157.796,294.237,157.796,289.033,154.585,285.822z"/>
	</g>
</g>
<g>
	<g>
		<path style="fill:#3F3A34;" d="M176.866,223.38h-11.432c-4.54,0-8.221,3.681-8.221,8.221s3.681,8.221,8.221,8.221h11.432c4.54,0,8.221-3.681,8.221-8.221
			S181.407,223.38,176.866,223.38z"/>
	</g>
</g>
<g>
	<g>
		<path style="fill:#3F3A34;" d="M94.374,223.38H82.942c-4.541,0-8.221,3.681-8.221,8.221s3.681,8.221,8.221,8.221h11.432c4.54,0,8.221-3.681,8.221-8.221
			S98.914,223.38,94.374,223.38z"/>
	</g>
</g>
<g>
	<g>
		<circle style="fill:#3F3A34;" cx="405.463" cy="373.103" r="8.221"/>
	</g>
</g>
<g>
	<g>
		<circle style="fill:#3F3A34;" cx="405.463" cy="406.833" r="8.221"/>
	</g>
</g>
<g>
	<g>
		<circle style="fill:#3F3A34;" cx="405.463" cy="440.562" r="8.221"/>
	</g>
</g>
<g>
</g>
<g>
</g>
<g>
</g>
<g>
</g>
<g>
</g>
<g>
</g>
<g>
</g>
<g>
</g>
<g>
</g>
<g>
</g>
<g>
</g>
<g>
</g>
<g>
</g>
<g>
</g>
<g>
</g>
</svg>
