<?xml version="1.0" encoding="iso-8859-1"?>
<!-- Generator: Adobe Illustrator 19.0.0, SVG Export Plug-In . SVG Version: 6.00 Build 0)  -->
<svg version="1.1" id="Layer_1" xmlns="http://www.w3.org/2000/svg" xmlns:xlink="http://www.w3.org/1999/xlink" x="0px" y="0px"
	 viewBox="0 0 511.999 511.999" style="enable-background:new 0 0 511.999 511.999;" xml:space="preserve">
<g>
	<g>
		<path style="fill:#3F3A34;" d="M163.1,183.614c-3.217-2.61-7.94-2.117-10.549,1.1c-3.19,3.934-7.425,6.1-11.925,6.1s-8.735-2.166-11.925-6.1
			c-2.608-3.217-7.332-3.709-10.549-1.1c-3.217,2.609-3.709,7.332-1.1,10.549c6.004,7.403,14.596,11.65,23.573,11.65
			s17.569-4.247,23.575-11.65C166.809,190.946,166.317,186.223,163.1,183.614z"/>
	</g>
</g>
<g>
	<g>
		<path style="fill:#3F3A34;" d="M105.125,137.563c-4.142,0-7.5,3.358-7.5,7.5v8.875c0,4.142,3.358,7.5,7.5,7.5c4.142,0,7.5-3.358,7.5-7.5v-8.875
			C112.625,140.921,109.267,137.563,105.125,137.563z"/>
	</g>
</g>
<g>
	<g>
		<path style="fill:#3F3A34;" d="M176.125,137.563c-4.142,0-7.5,3.358-7.5,7.5v8.875c0,4.142,3.358,7.5,7.5,7.5c4.142,0,7.5-3.358,7.5-7.5v-8.875
			C183.625,140.921,180.267,137.563,176.125,137.563z"/>
	</g>
</g>
<g>
	<g>
		<path style="fill:#3F3A34;" d="M67.458,345.833l-17.75-35.5c-1.852-3.705-6.357-5.207-10.062-3.354c-3.705,1.852-5.207,6.357-3.354,10.062l16.958,33.917
			v140.229c0,4.142,3.358,7.5,7.5,7.5c4.142,0,7.5-3.358,7.5-7.5v-142C68.25,348.022,67.979,346.874,67.458,345.833z"/>
	</g>
</g>
<g>
	<g>
		<path style="fill:#3F3A34;" d="M241.604,306.979c-3.705-1.853-8.21-0.351-10.062,3.354l-17.75,35.5c-0.521,1.042-0.792,2.189-0.792,3.354v142
			c0,4.142,3.358,7.5,7.5,7.5c4.142,0,7.5-3.358,7.5-7.5V350.958l16.958-33.917C246.811,313.337,245.309,308.832,241.604,306.979z"
			/>
	</g>
</g>
<g>
	<g>
		<path style="fill:#3F3A34;" d="M402.725,227.988c-3.217-2.61-7.94-2.117-10.549,1.1c-3.19,3.934-7.425,6.1-11.925,6.1s-8.735-2.166-11.925-6.1
			c-2.608-3.217-7.332-3.709-10.549-1.1c-3.217,2.609-3.709,7.332-1.1,10.549c6.005,7.404,14.598,11.65,23.575,11.65
			c8.977,0,17.567-4.246,23.573-11.65C406.434,235.32,405.942,230.597,402.725,227.988z"/>
	</g>
</g>
<g>
	<g>
		<path style="fill:#3F3A34;" d="M344.75,181.938c-4.142,0-7.5,3.358-7.5,7.5v8.875c0,4.142,3.358,7.5,7.5,7.5c4.142,0,7.5-3.358,7.5-7.5v-8.875
			C352.25,185.295,348.892,181.938,344.75,181.938z"/>
	</g>
</g>
<g>
	<g>
		<path style="fill:#3F3A34;" d="M415.75,181.938c-4.142,0-7.5,3.358-7.5,7.5v8.875c0,4.142,3.358,7.5,7.5,7.5c4.142,0,7.5-3.358,7.5-7.5v-8.875
			C423.25,185.296,419.892,181.938,415.75,181.938z"/>
	</g>
</g>
<g>
	<g>
		<path style="fill:#3F3A34;" d="M490.549,335.529l-60.856-24.343c-3.914-1.565-6.443-5.301-6.443-9.517v-18.433c4.164-2.35,8.147-5.039,11.89-8.065
			c15.239-12.317,26.006-29.568,30.319-48.573c1.437-6.333,2.166-12.864,2.166-19.412c0-43.685-31.643-49.967-62.243-56.042
			c-19.57-3.885-39.806-7.903-55.947-20.815c-1.766-1.413-4.078-1.949-6.286-1.466c-2.209,0.482-4.085,1.939-5.103,3.959
			c-0.042,0.083-4.244,8.355-11.351,16.41c-6.019,6.822-15.472,14.954-26.321,14.954c-3.648,0-7.115,0.784-10.25,2.183v-12.433
			c0-49.695,40.43-90.125,90.125-90.125s90.125,40.43,90.125,90.125v17.75c0,4.142,3.358,7.5,7.5,7.5c4.142,0,7.5-3.358,7.5-7.5
			v-17.75c0-39.318-21.7-73.657-53.75-91.687c0.325-1.962,0.5-3.946,0.5-5.938c0-23.71-23.271-43-51.875-43s-51.875,19.29-51.875,43
			c0,1.993,0.173,3.977,0.499,5.939c-32.049,18.03-53.749,52.369-53.749,91.686v35.5c0,11.398,7.592,21.057,17.985,24.185
			c0.32,4.378,0.965,8.722,1.931,12.977c4.313,19.005,15.081,36.256,30.319,48.573c3.743,3.026,7.726,5.715,11.89,8.065v18.433
			c0,4.216-2.529,7.951-6.443,9.517l-60.855,24.342c-13.031,5.212-21.451,17.649-21.451,31.684v44.104
			c0,1.99,0.791,3.898,2.198,5.305c1.406,1.406,3.313,2.195,5.302,2.195c0.001,0,0.002,0,0.004,0h1.371v72.371
			c0,4.142,3.358,7.5,7.5,7.5c4.142,0,7.5-3.358,7.5-7.5v-72.375h20.5v72.375c0,4.142,3.358,7.5,7.5,7.5c4.142,0,7.5-3.358,7.5-7.5
			v-97.625c0-4.142-3.358-7.5-7.5-7.5c-4.142,0-7.5,3.358-7.5,7.5v10.25h-28c-0.001,0-0.002,0-0.004,0H263.5v-36.6
			c0-7.866,4.719-14.836,12.022-17.757l47.326-18.93c6.282,10.646,24.113,37.028,54.047,51.995c1.056,0.528,2.205,0.792,3.354,0.792
			c1.149,0,2.298-0.264,3.354-0.792c29.934-14.967,47.766-41.349,54.047-51.995l47.327,18.931
			c7.303,2.921,12.022,9.892,12.022,17.757v36.6h-1.375h-28v-10.25c0-4.142-3.358-7.5-7.5-7.5c-4.142,0-7.5,3.358-7.5,7.5v97.625
			c0,4.142,3.358,7.5,7.5,7.5c4.142,0,7.5-3.358,7.5-7.5v-72.375h20.5v72.375c0,4.142,3.358,7.5,7.5,7.5c4.142,0,7.5-3.358,7.5-7.5
			v-72.375h1.375c4.142,0,7.5-3.358,7.5-7.5v-44.1C512,353.179,503.58,340.742,490.549,335.529z M380.25,28.313
			c19.967,0,36.266,12.114,36.847,27.171c-11.473-4.308-23.888-6.671-36.847-6.671s-25.375,2.363-36.847,6.671
			C343.984,40.427,360.283,28.313,380.25,28.313z M334.789,263.508c-12.629-10.209-21.55-24.495-25.121-40.228
			c-1.19-5.245-1.793-10.66-1.793-16.092c0-4.142-3.358-7.5-7.5-7.5c-5.652,0-10.25-4.598-10.25-10.25s4.598-10.25,10.25-10.25
			c22.743,0,39.239-20.594,46.688-32.116c17.491,11.261,37.496,15.233,55.398,18.788c32.963,6.544,50.164,11.354,50.164,41.329
			c0,5.433-0.604,10.847-1.793,16.092c-3.57,15.733-12.492,30.019-25.121,40.227c-12.995,10.504-28.715,16.056-45.461,16.056
			C363.504,279.564,347.784,274.012,334.789,263.508z M380.25,367.34c-22.628-12.499-37.183-32.724-43.272-42.492
			c9.294-3.995,15.272-13.013,15.272-23.178v-11.745c8.97,3.034,18.432,4.638,28,4.638s19.03-1.604,28-4.638v11.745
			c0,10.165,5.978,19.182,15.272,23.177C417.43,334.62,402.875,354.843,380.25,367.34z"/>
	</g>
</g>
<g>
	<g>
		<path style="fill:#3F3A34;" d="M256.931,274.187l-48.699-14.609l-8.117-12.175c-1.18-1.771-3.058-2.957-5.164-3.262c-0.824-0.12-1.651-0.096-2.452,0.053
			v-11.141c19.895-14.732,33.355-37.684,35.266-63.805c10.392-3.128,17.984-12.787,17.984-24.185c0-7.378-3.316-14.371-8.875-19.125
			V74.063c0-14.222-7.203-27.525-19.008-35.497C213.921,23.738,200.621,13.313,185,13.313h-71
			c-38.392,0-69.625,31.233-69.625,69.625v43c-5.559,4.754-8.875,11.746-8.875,19.125c0,11.398,7.592,21.057,17.984,24.185
			c1.911,26.121,15.37,49.073,35.266,63.805v11.14c-0.801-0.15-1.628-0.174-2.452-0.053c-2.106,0.306-3.983,1.491-5.164,3.262
			l-8.117,12.175l-48.699,14.609C9.773,278.551,0,291.686,0,306.873v184.315c0,4.142,3.358,7.5,7.5,7.5s7.5-3.358,7.5-7.5V306.873
			c0-8.511,5.478-15.873,13.63-18.319l33.502-10.051c0.065,1.556,0.614,3.092,1.636,4.369l30.126,37.658
			c3.245,4.056,7.977,6.173,12.771,6.173c3.421,0,6.875-1.079,9.84-3.303l16.619-12.464v180.25c0,4.142,3.358,7.5,7.5,7.5
			c4.142,0,7.5-3.358,7.5-7.5v-180.25l16.619,12.464c2.965,2.224,6.418,3.303,9.84,3.303c4.794,0,9.527-2.118,12.771-6.173
			l30.126-37.658c1.024-1.277,1.572-2.813,1.638-4.369l33.502,10.051c8.152,2.446,13.63,9.808,13.63,18.319
			c0,4.142,3.358,7.5,7.5,7.5c4.142,0,7.5-3.358,7.5-7.5C281.25,291.686,271.477,278.551,256.931,274.187z M68.25,162.813
			c0-4.142-3.358-7.5-7.5-7.5c-5.652,0-10.25-4.598-10.25-10.25c0-3.638,1.924-6.93,5.147-8.806
			c0.166-0.097,0.317-0.211,0.474-0.319c1.427-0.725,3.01-1.125,4.629-1.125h10.474c7.779,0,14.532-5.536,16.057-13.163
			l5.457-27.282c0.076-0.381,0.275-0.671,0.59-0.862c0.248-0.15,0.659-0.293,1.209-0.132c13.322,3.886,29.259,5.939,46.088,5.939
			c21.596,0,41.533-3.357,56.139-9.454c3.822-1.596,5.627-5.988,4.032-9.811c-1.596-3.822-5.987-5.626-9.811-4.032
			c-12.631,5.272-30.987,8.296-50.361,8.296c-15.207,0-30.083-1.896-41.887-5.339c-4.449-1.297-9.254-0.677-13.183,1.704
			c-3.888,2.356-6.631,6.274-7.526,10.75l-5.457,27.281c-0.128,0.64-0.695,1.105-1.348,1.105H60.75c-0.459,0-0.917,0.02-1.375,0.045
			v-36.92c0-30.12,24.505-54.625,54.625-54.625h71c9.408,0,17.313,6.78,18.796,16.121c0.359,2.26,1.73,4.233,3.723,5.357
			c8.855,4.994,14.355,14.294,14.355,24.272v55.712c0,2.67,1.42,5.139,3.728,6.482c3.223,1.876,5.147,5.168,5.147,8.806
			c0,5.652-4.598,10.25-10.25,10.25c-4.142,0-7.5,3.358-7.5,7.5c0,39.908-32.467,72.375-72.375,72.375S68.25,202.72,68.25,162.813z
			 M107.506,311.401c-0.598,0.449-1.431,0.342-1.898-0.241l-26.701-33.376l10.078-15.117l39.553,32.96L107.506,311.401z
			 M140.625,286.175l-36.875-30.729v-13.44c11.211,5.241,23.704,8.182,36.875,8.182s25.664-2.94,36.875-8.182v13.44L140.625,286.175
			z M175.642,311.16c-0.467,0.584-1.3,0.689-1.898,0.241l-21.032-15.773l39.553-32.96l10.078,15.117L175.642,311.16z"/>
	</g>
</g>
<g>
	<g>
		<path style="fill:#3F3A34;" d="M114.089,368.313H114c-4.142,0-7.456,3.358-7.456,7.5c0,4.142,3.402,7.5,7.544,7.5c4.142,0,7.5-3.358,7.5-7.5
			C121.588,371.671,118.231,368.313,114.089,368.313z"/>
	</g>
</g>
<g>
	<g>
		<path style="fill:#3F3A34;" d="M114.089,439.313H114c-4.142,0-7.456,3.358-7.456,7.5c0,4.142,3.402,7.5,7.544,7.5c4.142,0,7.5-3.358,7.5-7.5
			C121.588,442.671,118.231,439.313,114.089,439.313z"/>
	</g>
</g>
<g>
	<g>
		<path style="fill:#3F3A34;" d="M114.089,403.813H114c-4.142,0-7.456,3.358-7.456,7.5c0,4.142,3.402,7.5,7.544,7.5c4.142,0,7.5-3.358,7.5-7.5
			C121.588,407.171,118.231,403.813,114.089,403.813z"/>
	</g>
</g>
<g>
</g>
<g>
</g>
<g>
</g>
<g>
</g>
<g>
</g>
<g>
</g>
<g>
</g>
<g>
</g>
<g>
</g>
<g>
</g>
<g>
</g>
<g>
</g>
<g>
</g>
<g>
</g>
<g>
</g>
</svg>
