<?xml version="1.0" encoding="iso-8859-1"?>
<!-- Generator: Adobe Illustrator 19.0.0, SVG Export Plug-In . SVG Version: 6.00 Build 0)  -->
<svg version="1.1" id="Capa_1" xmlns="http://www.w3.org/2000/svg" xmlns:xlink="http://www.w3.org/1999/xlink" x="0px" y="0px"
	 viewBox="0 0 512 512" style="enable-background:new 0 0 512 512;" xml:space="preserve">
<path style="fill:#FFBE35;" d="M7.515,95.687c0-48.696,39.476-88.172,88.172-88.172s88.172,39.476,88.172,88.172
	c0,72.141-88.172,136.266-88.172,136.266S7.515,167.828,7.515,95.687z"/>
<path style="fill:#FFB414;" d="M31.562,87.671c0-34.446,19.756-64.276,48.553-78.785c-41.269,7.353-72.6,43.418-72.6,86.801
	c0,72.141,88.172,136.266,88.172,136.266s6.853-4.987,16.735-13.735C91.286,200.988,31.562,147.049,31.562,87.671z"/>
<circle style="fill:#FFDE5E;" cx="95.687" cy="95.687" r="48.094"/>
<path style="fill:#EF5830;" d="M328.141,368.219c0-48.696,39.476-88.172,88.172-88.172s88.172,39.476,88.172,88.172
	c0,72.141-88.172,136.266-88.172,136.266S328.141,440.36,328.141,368.219z"/>
<path style="fill:#BF3A2B;" d="M352.188,360.204c0-34.446,19.756-64.276,48.553-78.785c-41.269,7.354-72.6,43.419-72.6,86.801
	c0,72.141,88.172,136.266,88.172,136.266s6.853-4.987,16.735-13.735C411.913,473.52,352.188,419.581,352.188,360.204z"/>
<circle style="fill:#FFA68F;" cx="416.313" cy="368.219" r="48.094"/>
<path style="fill:#3F3A34;" d="M191.374,95.687C191.374,42.925,148.449,0,95.687,0S0,42.925,0,95.687C0,170.792,87.541,235.32,91.267,238.03
	c2.605,1.895,6.234,1.896,8.839,0C103.833,235.32,191.374,170.792,191.374,95.687z M15.029,95.687
	c0-44.475,36.183-80.658,80.658-80.658s80.658,36.183,80.658,80.658c0,58.401-63.19,112.84-80.658,126.769
	C78.218,208.526,15.029,154.088,15.029,95.687z"/>
<path style="fill:#3F3A34;" d="M151.296,95.687c0-5.274-0.739-10.496-2.196-15.52c-1.156-3.986-5.326-6.278-9.311-5.123
	c-3.986,1.156-6.279,5.325-5.123,9.311c1.062,3.662,1.601,7.476,1.601,11.332c0,22.376-18.204,40.579-40.579,40.579
	s-40.579-18.204-40.579-40.579s18.204-40.579,40.579-40.579c6.559,0,12.816,1.514,18.596,4.501c3.687,1.905,8.221,0.46,10.126-3.226
	c1.905-3.687,0.46-8.221-3.226-10.126c-7.822-4.042-16.639-6.178-25.496-6.178c-30.663,0-55.609,24.946-55.609,55.609
	s24.946,55.609,55.609,55.609S151.296,126.35,151.296,95.687z"/>
<path style="fill:#3F3A34;" d="M416.313,272.532c-52.762,0-95.687,42.925-95.687,95.687c0,75.105,87.541,139.633,91.267,142.343
	c2.605,1.895,6.234,1.896,8.839,0c3.726-2.71,91.267-67.238,91.267-142.343C512,315.457,469.075,272.532,416.313,272.532z
	 M416.313,494.988c-17.469-13.929-80.658-68.368-80.658-126.769c0-44.475,36.183-80.658,80.658-80.658s80.658,36.183,80.658,80.658
	C496.971,426.62,433.78,481.06,416.313,494.988z"/>
<path style="fill:#3F3A34;" d="M416.313,312.611c-6.137,0-12.172,0.995-17.935,2.958c-3.877,1.321-6.011,5.66-4.691,9.537
	c1.32,3.876,5.66,6.011,9.537,4.691c4.199-1.431,8.604-2.155,13.09-2.155c22.376,0,40.579,18.204,40.579,40.579
	s-18.204,40.578-40.579,40.578s-40.579-18.204-40.579-40.579c0-7.11,1.863-14.103,5.388-20.221c2.071-3.596,0.836-8.191-2.76-10.263
	c-3.596-2.07-8.19-0.836-10.263,2.76c-4.836,8.398-7.393,17.985-7.393,27.724c0,30.663,24.946,55.609,55.609,55.609
	s55.609-24.946,55.609-55.609S446.976,312.611,416.313,312.611z"/>
<path style="fill:#3F3A34;" d="M159.311,231.953c0-4.15-3.365-7.515-7.515-7.515h-8.016c-4.15,0-7.515,3.365-7.515,7.515s3.365,7.515,7.515,7.515h8.016
	C155.947,239.468,159.311,236.103,159.311,231.953z"/>
<path style="fill:#3F3A34;" d="M76.425,360.704h-0.778c-5.79,0-11.564,0.658-17.158,1.956c-3.939,0.914-6.487,4.925-5.652,8.877
	c0.858,4.063,5.006,6.699,9.049,5.763c4.482-1.04,9.112-1.567,13.761-1.567h0.778c4.15,0,7.515-3.365,7.515-7.515
	S80.575,360.704,76.425,360.704z"/>
<path style="fill:#3F3A34;" d="M15.325,442.388c-0.196-1.992-0.296-4.023-0.296-6.035c0-2.852,0.199-5.715,0.592-8.512c0.577-4.11-2.287-7.909-6.396-8.487
	c-4.117-0.581-7.909,2.286-8.487,6.396C0.249,429.238,0,432.803,0,436.352c0,2.504,0.124,5.031,0.369,7.511
	c0.383,3.88,3.651,6.778,7.47,6.778c0.246,0,0.496-0.012,0.746-0.037C12.714,450.196,15.733,446.518,15.325,442.388z"/>
<path style="fill:#3F3A34;" d="M248.36,362.478c1.407,2.357,3.901,3.663,6.46,3.663c1.311,0,2.638-0.343,3.846-1.064
	c5.195-3.102,10.02-6.831,14.339-11.086c2.958-2.912,2.994-7.67,0.082-10.627c-2.913-2.958-7.67-2.995-10.627-0.082
	c-3.466,3.413-7.334,6.404-11.499,8.89C247.396,354.3,246.232,358.914,248.36,362.478z"/>
<path style="fill:#3F3A34;" d="M73.845,496.945c-4.875-0.142-9.709-0.866-14.369-2.152c-4-1.105-8.139,1.242-9.244,5.243s1.243,8.139,5.243,9.244
	c5.82,1.607,11.854,2.512,17.932,2.689c0.075,0.002,0.148,0.003,0.222,0.003c4.049,0,7.389-3.222,7.508-7.296
	C81.259,500.527,77.994,497.065,73.845,496.945z"/>
<path style="fill:#3F3A34;" d="M122.754,496.971h-16.376c-4.15,0-7.515,3.365-7.515,7.515s3.365,7.515,7.515,7.515h16.376c4.15,0,7.515-3.365,7.515-7.515
	S126.904,496.971,122.754,496.971z"/>
<path style="fill:#3F3A34;" d="M24.935,469.574c-2.277-3.47-6.937-4.436-10.406-2.157c-3.469,2.277-4.436,6.937-2.157,10.406
	c3.322,5.06,7.254,9.722,11.687,13.857c1.449,1.352,3.288,2.02,5.124,2.02c6.7,0,10.006-8.46,5.127-13.009
	C30.753,477.372,27.599,473.633,24.935,469.574z"/>
<path style="fill:#3F3A34;" d="M26.372,378.953c-4.595,3.948-8.714,8.444-12.241,13.364c-2.199,3.068-1.733,7.435,1.075,9.96
	c3.287,2.956,8.565,2.388,11.139-1.203c2.83-3.947,6.134-7.555,9.821-10.723c3.148-2.704,3.507-7.45,0.803-10.597
	C34.264,376.609,29.52,376.249,26.372,378.953z"/>
<path style="fill:#3F3A34;" d="M319.265,496.971h-16.376c-4.15,0-7.515,3.365-7.515,7.515s3.365,7.515,7.515,7.515h16.376c4.15,0,7.515-3.365,7.515-7.515
	S323.415,496.971,319.265,496.971z"/>
<path style="fill:#3F3A34;" d="M223.384,360.607c-1.146,0.064-2.309,0.097-3.455,0.097h-12.497c-4.15,0-7.515,3.365-7.515,7.515s3.365,7.515,7.515,7.515
	h12.497c1.426,0,2.872-0.041,4.296-0.12c4.144-0.232,7.314-3.779,7.082-7.923C231.075,363.546,227.528,360.375,223.384,360.607z"/>
<path style="fill:#3F3A34;" d="M255.87,241.704c1.777-3.75,0.178-8.232-3.572-10.01c-5.484-2.599-11.277-4.53-17.221-5.738
	c-4.066-0.827-8.035,1.8-8.861,5.866c-0.828,4.067,1.8,8.035,5.866,8.861c4.755,0.967,9.391,2.512,13.778,4.592
	C249.565,247.031,254.116,245.403,255.87,241.704z"/>
<path style="fill:#3F3A34;" d="M125.553,360.704h-16.376c-4.15,0-7.515,3.365-7.515,7.515s3.365,7.515,7.515,7.515h16.376c4.15,0,7.515-3.365,7.515-7.515
	S129.703,360.704,125.553,360.704z"/>
<path style="fill:#3F3A34;" d="M275.588,276.028c1.712,3.956,6.566,5.67,10.388,3.669c3.439-1.801,4.945-6.08,3.404-9.64
	c-2.404-5.553-5.482-10.818-9.149-15.652c-2.507-3.305-7.221-3.954-10.529-1.445c-3.306,2.508-3.953,7.222-1.445,10.529
	C271.197,267.362,273.662,271.581,275.588,276.028z"/>
<path style="fill:#3F3A34;" d="M288.423,297.519c-4.145-0.306-7.735,2.82-8.032,6.96c-0.348,4.855-1.277,9.653-2.765,14.258
	c-1.209,3.746,0.775,7.9,4.445,9.319c3.974,1.536,8.55-0.651,9.857-4.7c1.859-5.755,3.021-11.745,3.454-17.805
	C295.678,301.411,292.562,297.815,288.423,297.519z"/>
<path style="fill:#3F3A34;" d="M270.137,496.971h-16.376c-4.15,0-7.515,3.365-7.515,7.515s3.365,7.515,7.515,7.515h16.376c4.15,0,7.515-3.365,7.515-7.515
	S274.287,496.971,270.137,496.971z"/>
<path style="fill:#3F3A34;" d="M174.68,360.704h-16.376c-4.15,0-7.515,3.365-7.515,7.515s3.365,7.515,7.515,7.515h16.376c4.15,0,7.515-3.365,7.515-7.515
	S178.83,360.704,174.68,360.704z"/>
<path style="fill:#3F3A34;" d="M221.01,496.971h-16.376c-4.15,0-7.515,3.365-7.515,7.515s3.365,7.515,7.515,7.515h16.376c4.15,0,7.515-3.365,7.515-7.515
	S225.16,496.971,221.01,496.971z"/>
<path style="fill:#3F3A34;" d="M171.882,496.971h-16.376c-4.15,0-7.515,3.365-7.515,7.515s3.365,7.515,7.515,7.515h16.376c4.15,0,7.515-3.365,7.515-7.515
	S176.032,496.971,171.882,496.971z"/>
<path style="fill:#3F3A34;" d="M208.439,231.953c0-4.15-3.365-7.515-7.515-7.515h-16.376c-4.15,0-7.515,3.365-7.515,7.515s3.365,7.515,7.515,7.515h16.376
	C205.075,239.468,208.439,236.103,208.439,231.953z"/>
<path style="fill:#3F3A34;" d="M360.204,496.971h-8.016c-4.15,0-7.515,3.365-7.515,7.515s3.365,7.515,7.515,7.515h8.016c4.15,0,7.515-3.365,7.515-7.515
	S364.354,496.971,360.204,496.971z"/>
<g>
</g>
<g>
</g>
<g>
</g>
<g>
</g>
<g>
</g>
<g>
</g>
<g>
</g>
<g>
</g>
<g>
</g>
<g>
</g>
<g>
</g>
<g>
</g>
<g>
</g>
<g>
</g>
<g>
</g>
</svg>
