<?xml version="1.0" encoding="iso-8859-1"?>
<!-- Generator: Adobe Illustrator 19.0.0, SVG Export Plug-In . SVG Version: 6.00 Build 0)  -->
<svg version="1.1" id="Capa_1" xmlns="http://www.w3.org/2000/svg" xmlns:xlink="http://www.w3.org/1999/xlink" x="0px" y="0px"
	 viewBox="0 0 496 496" style="enable-background:new 0 0 496 496;" xml:space="preserve">
<g>
	<rect x="16" y="72" style="fill:#FFCB57;" width="200" height="24"/>
	<path style="fill:#FFCB57;" d="M360,374.976L360,374.976c0,11.152,2.96,22.104,8.576,31.728l43.392,74.384
		c2.496,4.28,7.08,6.912,12.032,6.912l0,0c4.952,0,9.536-2.632,12.032-6.912l43.392-74.384c5.616-9.632,8.576-20.576,8.576-31.728
		l0,0C488,340.192,459.808,312,425.024,312h-2.048C388.192,312,360,340.192,360,374.976z"/>
</g>
<g>
	<path style="fill:#3F3A34;" d="M216,64h-35.056l-32-64h-30.008l8,64H60.528l-24-40H0v40v8c0,30.88,25.12,56,56,56h70.776l-8,56
		h29.864l32-56H272v-8C272,89.12,246.88,64,216,64z M137.064,16h1.992l24,48h-19.992L137.064,16z M16,64V40h11.472l14.4,24H16z
		 M16.808,80H208v32H56C36.68,112,20.52,98.232,16.808,80z M139.36,168h-2.136l5.712-40h19.28L139.36,168z M224,112V80.88
		c15.64,3.2,28.008,15.48,31.192,31.12H224z"/>
	<path style="fill:#3F3A34;" d="M425.024,304h-2.048C383.84,304,352,335.84,352,374.976c0,12.552,3.344,24.92,9.664,35.76
		l43.392,74.384C408.976,491.832,416.232,496,424,496s15.024-4.168,18.944-10.88l43.392-74.384c6.328-10.832,9.664-23.2,9.664-35.76
		C496,335.84,464.16,304,425.024,304z M472.512,402.672l-43.392,74.384c-2.12,3.64-8.128,3.64-10.24,0l-43.392-74.384
		c-4.896-8.392-7.488-17.968-7.488-27.696C368,344.664,392.664,320,422.976,320h2.048C455.336,320,480,344.664,480,374.976
		C480,384.704,477.408,394.28,472.512,402.672z"/>
	<path style="fill:#3F3A34;" d="M424,336c-22.056,0-40,17.944-40,40s17.944,40,40,40s40-17.944,40-40S446.056,336,424,336z M424,400
		c-13.232,0-24-10.768-24-24s10.768-24,24-24s24,10.768,24,24S437.232,400,424,400z"/>
</g>
<path style="fill:#EF5830;" d="M327.488,384h-16.024v-16h16.024V384z M295.44,384h-16.024v-16h16.024V384z M263.384,384H247.36v-16
	h16.024V384z M231.336,384h-16.024v-16h16.024V384z M199.288,384h-16.024v-16h16.024V384z M167.24,384h-16.024v-16h16.024V384z
	 M135.192,384h-16.024v-16h16.024V384z M103.144,384H87.12v-16h16.024C103.144,368,103.144,384,103.144,384z M71,383.984
	c-6.016-0.072-12.008-0.896-17.824-2.48l4.176-15.44c4.504,1.216,9.16,1.856,13.824,1.912L71,383.984z M36.536,374.68
	c-5.224-2.976-10.072-6.584-14.392-10.736l11.08-11.544c3.368,3.232,7.152,6.056,11.232,8.376L36.536,374.68z M10.824,349.976
	c-3.176-5.112-5.712-10.608-7.512-16.336l15.256-4.816c1.4,4.456,3.368,8.72,5.84,12.696L10.824,349.976z M0.104,315.944
	C0.032,314.64,0,313.32,0,312c0-4.688,0.456-9.384,1.352-13.96l15.704,3.08C16.352,304.68,16,308.344,16,312
	c0,1.04,0.024,2.064,0.08,3.088L0.104,315.944z M21.456,287.864l-14.44-6.904c2.592-5.416,5.864-10.496,9.72-15.12l12.272,10.264
	C26.008,279.704,23.472,283.656,21.456,287.864z M39.248,266.568l-9.36-12.984c4.888-3.528,10.2-6.424,15.776-8.624l5.856,14.888
	C47.184,261.56,43.056,263.824,39.248,266.568z M65.064,256.424l-1.96-15.88C66.032,240.184,69.024,240,72,240h8.088v16H72
	C69.656,256,67.336,256.144,65.064,256.424z M424.168,256c-0.064,0-0.128,0-0.184,0h-7.376v-16H424
	c2.384,0.032,5.04-0.16,7.528-0.496l2.136,15.856C430.52,255.784,427.328,256,424.168,256z M400.576,256h-16.024v-16h16.024V256z
	 M368.528,256h-16.024v-16h16.024V256z M336.48,256h-16.024v-16h16.024V256z M304.432,256h-16.024v-16h16.024V256z M272.384,256
	H256.36v-16h16.024V256z M240.336,256h-16.024v-16h16.024V256z M208.288,256h-16.024v-16h16.024V256z M176.232,256h-16.024v-16
	h16.024V256z M144.184,256H128.16v-16h16.024V256z M112.136,256H96.112v-16h16.024V256z M451.048,250.744l-6.016-14.832
	c4.328-1.752,8.424-4.048,12.192-6.832l9.504,12.872C461.888,245.528,456.616,248.488,451.048,250.744z M479.736,229.576
	L467.36,219.44c2.96-3.616,5.464-7.6,7.44-11.832l14.504,6.752C486.768,219.808,483.552,224.928,479.736,229.576z M494.792,197.216
	l-15.736-2.92C479.68,190.92,480,187.456,480,184c0-1.24-0.04-2.464-0.12-3.68l15.968-1.032c0.104,1.552,0.152,3.12,0.152,4.712
	C496,188.432,495.592,192.88,494.792,197.216z M477.248,166.6c-1.448-4.432-3.456-8.688-5.976-12.632l13.496-8.6
	c3.24,5.08,5.832,10.552,7.688,16.264L477.248,166.6z M462.352,143.192c-3.416-3.208-7.216-5.984-11.312-8.248l7.744-14
	c5.256,2.904,10.144,6.472,14.52,10.584L462.352,143.192z M438.064,129.776c-4.496-1.168-9.168-1.76-13.872-1.776l0.056-16
	c6.04,0.024,12.032,0.792,17.824,2.288L438.064,129.776z M408.192,128h-16.024v-16h16.024V128z M376.144,128H360.12v-16h16.024V128z
	 M344.096,128h-16.024v-16h16.024V128z M312.048,128h-16.024v-16h16.024V128z"/>
<g>
</g>
<g>
</g>
<g>
</g>
<g>
</g>
<g>
</g>
<g>
</g>
<g>
</g>
<g>
</g>
<g>
</g>
<g>
</g>
<g>
</g>
<g>
</g>
<g>
</g>
<g>
</g>
<g>
</g>
</svg>
