<?xml version="1.0" encoding="iso-8859-1"?>
<!-- Generator: Adobe Illustrator 19.0.0, SVG Export Plug-In . SVG Version: 6.00 Build 0)  -->
<svg version="1.1" id="Layer_1" xmlns="http://www.w3.org/2000/svg" xmlns:xlink="http://www.w3.org/1999/xlink" x="0px" y="0px"
	 viewBox="0 0 512 512" style="enable-background:new 0 0 512 512;" xml:space="preserve">
<rect x="23.273" y="128" style="fill:#ffffff;" width="314.182" height="256"/>
<rect x="337.455" y="128" style="fill:#EF5830;" width="151.273" height="256"/>
<g>
	<path style="fill:#3F3A34;" d="M500.364,407.273H11.636C5.201,407.273,0,402.071,0,395.636V116.364
		c0-6.435,5.201-11.636,11.636-11.636h488.727c6.435,0,11.636,5.201,11.636,11.636v279.273
		C512,402.071,506.799,407.273,500.364,407.273z M23.273,384h465.455V128H23.273V384z"/>
	<path style="fill:#FFCB57;" d="M325.818,349.091c0-6.4,5.236-11.636,11.636-11.636l0,0c6.4,0,11.636,5.236,11.636,11.636l0,0
		c0,6.4-5.236,11.636-11.636,11.636l0,0C331.055,360.727,325.818,355.491,325.818,349.091z M325.818,302.545
		c0-6.4,5.236-11.636,11.636-11.636l0,0c6.4,0,11.636,5.236,11.636,11.636l0,0c0,6.4-5.236,11.636-11.636,11.636l0,0
		C331.055,314.182,325.818,308.945,325.818,302.545z M325.818,256c0-6.4,5.236-11.636,11.636-11.636l0,0
		c6.4,0,11.636,5.236,11.636,11.636l0,0c0,6.4-5.236,11.636-11.636,11.636l0,0C331.055,267.636,325.818,262.4,325.818,256z
		 M325.818,209.455c0-6.4,5.236-11.636,11.636-11.636l0,0c6.4,0,11.636,5.236,11.636,11.636l0,0c0,6.4-5.236,11.636-11.636,11.636
		l0,0C331.055,221.091,325.818,215.855,325.818,209.455z M325.818,162.909c0-6.4,5.236-11.636,11.636-11.636l0,0
		c6.4,0,11.636,5.236,11.636,11.636l0,0c0,6.4-5.236,11.636-11.636,11.636l0,0C331.055,174.545,325.818,169.309,325.818,162.909z"/>
</g>
<path style="fill:#FFCB57;" d="M256,244.364h-39.959l-31.523-52.538c-2.909-4.852-8.879-6.924-14.173-4.864
	c-5.283,2.048-8.32,7.575-7.215,13.137l8.855,44.265h-36.794l-8.425-16.838c-2.874-5.748-9.856-8.064-15.616-5.201
	c-5.748,2.874-8.076,9.868-5.201,15.616l9.041,18.06l-9.03,18.071c-2.874,5.748-0.547,12.742,5.201,15.616
	c1.664,0.826,3.444,1.222,5.19,1.222c4.271,0,8.378-2.351,10.415-6.435l8.425-16.838h36.794l-8.855,44.265
	c-1.117,5.562,1.932,11.089,7.215,13.137c1.373,0.535,2.793,0.78,4.189,0.78c3.991,0,7.831-2.06,9.984-5.644l31.523-52.538H256
	c6.423,0,11.636-5.201,11.636-11.636C267.636,249.565,262.423,244.364,256,244.364z"/>
<rect x="395.636" y="174.545" style="fill:#FFFFFF;" width="23.273" height="23.273"/>
<g>
	<path  style="fill:#3F3A34;" d="M430.545,221.091H384c-6.435,0-11.636-5.201-11.636-11.636v-46.545
		c0-6.435,5.201-11.636,11.636-11.636h46.545c6.435,0,11.636,5.201,11.636,11.636v46.545
		C442.182,215.889,436.98,221.091,430.545,221.091z M395.636,197.818h23.273v-23.273h-23.273V197.818z"/>
	<path style="fill:#3F3A34;" d="M453.818,314.182H384c-6.435,0-11.636-5.201-11.636-11.636s5.201-11.636,11.636-11.636h69.818
		c6.435,0,11.636,5.201,11.636,11.636S460.253,314.182,453.818,314.182z"/>
	<path style="fill:#3F3A34;" d="M453.818,360.727H384c-6.435,0-11.636-5.201-11.636-11.636s5.201-11.636,11.636-11.636h69.818
		c6.435,0,11.636,5.201,11.636,11.636S460.253,360.727,453.818,360.727z"/>
</g>
<g>
</g>
<g>
</g>
<g>
</g>
<g>
</g>
<g>
</g>
<g>
</g>
<g>
</g>
<g>
</g>
<g>
</g>
<g>
</g>
<g>
</g>
<g>
</g>
<g>
</g>
<g>
</g>
<g>
</g>
</svg>
