<?xml version="1.0" encoding="UTF-8" standalone="no"?>
<!-- Created with Inkscape (http://www.inkscape.org/) -->

<svg
   xmlns:dc="http://purl.org/dc/elements/1.1/"
   xmlns:cc="http://creativecommons.org/ns#"
   xmlns:rdf="http://www.w3.org/1999/02/22-rdf-syntax-ns#"
   xmlns:svg="http://www.w3.org/2000/svg"
   xmlns="http://www.w3.org/2000/svg"
   xmlns:xlink="http://www.w3.org/1999/xlink"
   xmlns:sodipodi="http://sodipodi.sourceforge.net/DTD/sodipodi-0.dtd"
   xmlns:inkscape="http://www.inkscape.org/namespaces/inkscape"
   version="1.1"
   width="380.0011"
   height="145.74451"
   id="svg3161"
   xml:space="preserve"
   inkscape:version="0.48.1 "
   sodipodi:docname="AJAX.svg"><sodipodi:namedview
     pagecolor="#ffffff"
     bordercolor="#666666"
     borderopacity="1"
     objecttolerance="10"
     gridtolerance="10"
     guidetolerance="10"
     inkscape:pageopacity="0"
     inkscape:pageshadow="2"
     inkscape:window-width="1280"
     inkscape:window-height="1004"
     id="namedview48"
     showgrid="false"
     fit-margin-top="0"
     fit-margin-left="0"
     fit-margin-right="0"
     fit-margin-bottom="0"
     inkscape:zoom="1.2913821"
     inkscape:cx="204.34442"
     inkscape:cy="-61.704265"
     inkscape:window-x="-8"
     inkscape:window-y="-8"
     inkscape:window-maximized="1"
     inkscape:current-layer="svg3161" /><metadata
     id="metadata3167"><rdf:RDF><cc:Work
         rdf:about=""><dc:format>image/svg+xml</dc:format><dc:type
           rdf:resource="http://purl.org/dc/dcmitype/StillImage" /><dc:title /></cc:Work></rdf:RDF></metadata><defs
     id="defs3165"><linearGradient
       id="linearGradient114607"><stop
         id="stop114609"
         style="stop-color:#f9f5a5;stop-opacity:1"
         offset="0" /><stop
         id="stop114619"
         style="stop-color:#fbda63;stop-opacity:1"
         offset="0.33517763" /><stop
         id="stop114621"
         style="stop-color:#ffc409;stop-opacity:1"
         offset="0.58132273" /><stop
         id="stop114611"
         style="stop-color:#ffbf0a;stop-opacity:1"
         offset="1" /></linearGradient><linearGradient
       id="linearGradient114526"><stop
         id="stop114528"
         style="stop-color:#15b8ec;stop-opacity:1"
         offset="0" /><stop
         id="stop114536"
         style="stop-color:#15b8ec;stop-opacity:1"
         offset="0.55000001" /><stop
         id="stop114534"
         style="stop-color:#006bb6;stop-opacity:1"
         offset="0.72000003" /><stop
         id="stop114530"
         style="stop-color:#006bb6;stop-opacity:1"
         offset="1" /></linearGradient><clipPath
       id="clipPath3395"><path
         d="m 285.963,541.117 c -5.968,-0.014 -11.366,-2.427 -15.287,-6.324 l 0,0 -3.118,-6.657 c 3.276,6.866 10.285,11.629 18.411,11.65 l 0,0 c 2.948,0.007 5.754,-0.611 8.288,-1.729 l 0,0 -6.357,2.98 c -0.618,0.053 -1.244,0.08 -1.875,0.08 l 0,0 c -0.021,0 -0.04,0 -0.062,0 m 20.484,-21.676 c 0.008,-3.08 -0.667,-6.003 -1.882,-8.626 l 0,0 3.135,6.695 c 0.053,0.628 0.079,1.264 0.077,1.906 l 0,0 c -0.016,5.954 -2.419,11.342 -6.301,15.26 l 0,0 -1.725,0.806 -4.65,2.18 c 6.706,-3.333 11.322,-10.241 11.346,-18.221 m -42.109,1.818 c -0.056,-0.644 -0.083,-1.297 -0.082,-1.955 l 0,0 c 0.017,-5.933 2.402,-11.303 6.258,-15.217 l 0,0 6.572,-3.079 c -6.791,3.306 -11.478,10.266 -11.502,18.33 l 0,0 c -0.007,3.042 0.655,5.932 1.849,8.531 l 0,0 -3.095,-6.61 z m 21.731,-22.301 c -0.017,0 -0.036,0 -0.052,0 l 0,0 c -2.984,0 -5.821,0.641 -8.378,1.792 l 0,0 4.795,-2.246 1.773,-0.831 c 0.615,-0.05 1.236,-0.075 1.864,-0.074 l 0,0 c 5.949,0.015 11.33,2.41 15.247,6.283 l 0,0 3.178,6.787 c -3.265,-6.904 -10.285,-11.689 -18.427,-11.711"
         id="path3397"
         inkscape:connector-curvature="0" /></clipPath><clipPath
       id="clipPath3543"><path
         d="m 187,480.89 242,0 0,97 -242,0 0,-97 z"
         id="path3545"
         inkscape:connector-curvature="0" /></clipPath><linearGradient
       x1="144.28125"
       y1="464.68811"
       x2="319.60617"
       y2="577.30591"
       id="linearGradient114532"
       xlink:href="#linearGradient114526"
       gradientUnits="userSpaceOnUse" /><clipPath
       id="clipPath114538"><path
         d="m 365.23875,346.8125 c -3.41125,3.42375 -61.37125,74.3625 -67.505,80.53875 l 0,0 c -3.755,3.76375 -7.17,5.825 -9.5625,6.51875 l 0,0 c -3.355,1.35 -23.2875,8.14125 -53.53625,17.38 l 0,0 143.39125,0 26.2125,-105.145 -0.65625,-0.425 c -1.68875,-0.0288 -6.0275,-0.0925 -11.2675,-0.0925 l 0,0 c -9.5425,0 -22.07875,0.21125 -27.07625,1.225"
         id="path114540"
         inkscape:connector-curvature="0" /></clipPath><linearGradient
       x1="322.35486"
       y1="415.55792"
       x2="370.83289"
       y2="438.2338"
       id="linearGradient114613"
       xlink:href="#linearGradient114607"
       gradientUnits="userSpaceOnUse" /><clipPath
       id="clipPath114615"><path
         d="m 357.46875,375.96875 c -15.0275,0.035 -27.1925,12.22375 -27.15625,27.25 0.0437,15.02875 12.25375,27.19375 27.28125,27.15625 10.82875,-0.0275 20.145,-6.36875 24.5,-15.53125 l 0.125,-0.28125 c 1.6075,-3.485 2.51,-7.37625 2.5,-11.46875 -0.03,-10.83625 -6.3825,-20.1825 -15.5625,-24.53125 l -0.1875,-0.0937 c -3.47625,-1.61375 -7.3525,-2.5 -11.4375,-2.5 l -0.0625,0 z m 0,1.65625 c 14.0975,-0.0362 25.55125,11.3725 25.59375,25.4375 0.0337,14.1 -11.37,25.55625 -25.46875,25.59375 l -0.0625,0 c -14.07375,10e-4 -25.52125,-11.385 -25.5625,-25.46875 -0.0312,-14.0625 11.39625,-25.52625 25.5,-25.5625 z m 0.0312,1.125 c -9.70375,0.0213 -18.06625,5.67375 -22,13.84375 l -0.21875,0.46875 c -1.40875,3.09375 -2.1975,6.53625 -2.1875,10.15625 0.025,9.7 5.71875,18.08 13.9375,22 l 0.3125,0.125 c 3.12625,1.43625 6.61125,2.25875 10.28125,2.25 6.56875,-0.0188 12.54125,-2.68375 16.90625,-6.90625 0.18625,-0.1525 0.34625,-0.305 0.5,-0.5 -0.15375,-0.15125 -0.31,-0.3125 -0.5,-0.46875 -8.7175,-8.66875 -20.63,-14.09625 -33.8125,-14.375 l -1.46875,1.46875 0,-6.34375 0.1875,0 c 5.33375,-0.0113 10.04875,0.4675 14.53125,1.6875 -2.44,-1.07125 -5.00125,-1.86375 -7.59375,-2.4375 l 0,-4.9375 28.09375,-0.0937 6.03125,0 c -1.32,-3.51375 -3.40375,-6.655 -6.0625,-9.15625 -1.79125,-1.73 -3.8375,-3.1675 -6.09375,-4.28125 l -0.90625,-0.40625 c -3.015,-1.3375 -6.3425,-2.09375 -9.84375,-2.09375 l -0.0937,0 z m 23.59375,17.90625 -6.625,0.0312 -5.84375,0 -0.15625,1 6,0 6.875,-0.0312 c -0.08,-0.34875 -0.17,-0.65375 -0.25,-1 z m 0.65625,2.96875 -7.28125,0.0312 -15.1875,0.0312 c 6.075,3.41875 11.26375,8.20625 15.21875,13.875 0.31125,0.425 0.605,0.82125 0.875,1.25 l 0,0.0625 c 0,0 -0.005,0.0213 0,0.0312 -0.01,0.0103 0,0.0213 0,0.0625 l 0,4.875 c 1.6325,-1.74875 3.02625,-3.72125 4.09375,-5.875 L 379.90625,413 c 1.33875,-3.03125 2.0725,-6.395 2.0625,-9.90625 0,-1.19875 -0.0587,-2.31 -0.21875,-3.46875 z"
         id="path114617"
         inkscape:connector-curvature="0" /></clipPath><linearGradient
       x1="144.28125"
       y1="464.68811"
       x2="319.60617"
       y2="577.30591"
       id="linearGradient114644"
       xlink:href="#linearGradient114526"
       gradientUnits="userSpaceOnUse" /><linearGradient
       x1="322.35486"
       y1="415.55792"
       x2="370.83289"
       y2="438.2338"
       id="linearGradient114646"
       xlink:href="#linearGradient114607"
       gradientUnits="userSpaceOnUse" /><linearGradient
       inkscape:collect="always"
       xlink:href="#linearGradient114526"
       id="linearGradient3048"
       gradientUnits="userSpaceOnUse"
       x1="144.28125"
       y1="464.68811"
       x2="319.60617"
       y2="577.30591" /></defs><g
     transform="matrix(1.25,0,0,-1.25,-10.000725,152.87428)"
     id="g3169"><g
       transform="matrix(1.37934,0,0,1.37934,-249.936,-657.607)"
       id="g114623"><path
         d="M 276.21875,263.5625 144.28125,467.1875 319.5,580.28125 451.46875,376.65625 z"
         transform="matrix(0.8,0,0,-0.8,0,841.89)"
         clip-path="url(#clipPath114538)"
         id="path3375"
         style="fill:url(#linearGradient3048);fill-opacity:1;fill-rule:nonzero;stroke:none"
         inkscape:connector-curvature="0" /><g
         clip-path="url(#clipPath3395)"
         id="g3393"><g
           id="g3399"><g
             transform="scale(1,-1)"
             id="g3401"><g
               id="g3403"><path
                 d="m 258.85251,-509.54574 c 0,0 17.31941,-36.98426 17.31941,-36.98426 0,0 4.1592,1.94531 4.1592,1.94531 0,0 -17.32039,36.98328 -17.32039,36.98328 0,0 -4.15822,-1.94433 -4.15822,-1.94433 z"
                 id="path3405"
                 style="fill:#f9f790;fill-opacity:1;fill-rule:nonzero;stroke:none"
                 inkscape:connector-curvature="0" /><path
                 d="m 263.01073,-507.60141 c 0,0 17.32039,-36.98328 17.32039,-36.98328 0,0 0.30371,0.14209 0.83447,0.39062 0,0 -17.32038,36.98329 -17.32038,36.98329 -0.53076,-0.24854 -0.83448,-0.39063 -0.83448,-0.39063 z"
                 id="path3407"
                 style="fill:#f9f790;fill-opacity:1;fill-rule:nonzero;stroke:none"
                 inkscape:connector-curvature="0" /><path
                 d="m 263.84521,-507.21078 c 0,0 17.32038,-36.98329 17.32038,-36.98329 0.53077,0.24902 1.28956,0.60449 2.19972,1.03125 0,0 -17.3199,36.98279 -17.3199,36.98279 -0.91064,-0.42626 -1.66944,-0.78173 -2.2002,-1.03075 z"
                 id="path3409"
                 style="fill:#f9f489;fill-opacity:1;fill-rule:nonzero;stroke:none"
                 inkscape:connector-curvature="0" /><path
                 d="m 266.04541,-506.18003 c 0,0 17.3199,-36.98279 17.3199,-36.98279 1.82081,0.85351 4.24806,1.9912 6.67581,3.12938 0,0 -17.31892,36.98085 -17.31892,36.98085 -2.42823,-1.13721 -4.85598,-2.27441 -6.67679,-3.12744 z"
                 id="path3411"
                 style="fill:#f9ee77;fill-opacity:1;fill-rule:nonzero;stroke:none"
                 inkscape:connector-curvature="0" /><path
                 d="m 272.7222,-503.05259 c 0,0 17.31892,-36.98085 17.31892,-36.98085 2.42774,1.13818 4.855,2.27587 6.67581,3.12939 0,0 -17.31795,36.97889 -17.31795,36.97889 -1.8208,-0.85303 -4.24855,-1.99023 -6.67678,-3.12743 z"
                 id="path3413"
                 style="fill:#fad947;fill-opacity:1;fill-rule:nonzero;stroke:none"
                 inkscape:connector-curvature="0" /><path
                 d="m 279.39898,-499.92516 c 0,0 17.31795,-36.97889 17.31795,-36.97889 0.91016,0.42675 1.66895,0.78222 2.19971,1.03124 0,0 -17.31745,36.97841 -17.31745,36.97841 -0.53077,-0.24903 -1.28956,-0.60449 -2.20021,-1.03076 z"
                 id="path3415"
                 style="fill:#fac71b;fill-opacity:1;fill-rule:nonzero;stroke:none"
                 inkscape:connector-curvature="0" /><path
                 d="m 281.59919,-498.8944 c 0,0 17.31745,-36.97841 17.31745,-36.97841 0.53077,0.24854 0.83448,0.39063 0.83448,0.39063 0,0 -17.31746,36.9784 -17.31746,36.9784 0,0 -0.30371,-0.14209 -0.83447,-0.39062 z"
                 id="path3417"
                 style="fill:#fbc10e;fill-opacity:1;fill-rule:nonzero;stroke:none"
                 inkscape:connector-curvature="0" /><path
                 d="m 282.43366,-498.50378 c 0,0 17.31746,-36.9784 17.31746,-36.9784 0,0 8.01761,3.74803 8.01761,3.74803 0,0 -17.32136,36.98329 -17.32136,36.98329 0,0 -8.01371,-3.75292 -8.01371,-3.75292 z"
                 id="path3419"
                 style="fill:#fbbf09;fill-opacity:1;fill-rule:nonzero;stroke:none"
                 inkscape:connector-curvature="0" /><path
                 d="m 290.44737,-494.75086 c 0,0 17.32136,-36.98329 17.32136,-36.98329 0,0 5.40627,2.5332 5.40627,2.5332 0,0 -17.31941,36.98328 -17.31941,36.98328 0,0 -5.40822,-2.53319 -5.40822,-2.53319 z"
                 id="path3421"
                 style="fill:#fabb09;fill-opacity:1;fill-rule:nonzero;stroke:none"
                 inkscape:connector-curvature="0" /></g></g></g></g><path
         d="m 344.40625,367 -23.0625,49.28125 49.28125,23.0625 23.0625,-49.28125 z"
         transform="matrix(0.8,0,0,-0.8,0,841.89)"
         clip-path="url(#clipPath114615)"
         id="path3437"
         style="fill:url(#linearGradient114646);fill-opacity:1;fill-rule:nonzero;stroke:none"
         inkscape:connector-curvature="0" /><g
         clip-path="url(#clipPath3543)"
         id="g3541"><g
           transform="translate(323.38,565.054)"
           id="g3547"><path
             d="m 0,0 c 0,0 -24.904,0.314 -30.999,-0.92 -2.436,-2.445 -50.285,-60.844 -54.67,-65.251 -2.295,-2.304 -4.998,-4.067 -7.272,-4.851 -20.413,-7.022 -87.744,-27.504 -98.48,-29.679"
             id="path3549"
             style="fill:none;stroke:#ffffff;stroke-width:0.27200001;stroke-linecap:butt;stroke-linejoin:miter;stroke-miterlimit:4;stroke-opacity:1;stroke-dasharray:none"
             inkscape:connector-curvature="0" /></g></g><path
         d="m 353.9639,516.9551 c 0,-2.717 -0.832,-7.532 -5.852,-7.532 -5.066,0 -6.017,4.77 -6.017,7.532 l -0.047,18.917 -7.186,0 0,-18.687 c 0,-11.236 8.461,-14.785 13.204,-14.785 6.262,0 13.131,5.115 13.131,14.785 l 0,18.687 -7.246,0 0.013,-18.917 z m 13.224,-14.47 7.397,0 0,33.393 -7.397,0 0,-33.393 z m 22.004,11.67 0.525,1.792 c 0.527,1.677 0.957,3.113 1.773,6.178 0.383,1.535 1.103,4.36 1.58,6.375 0.625,-3.211 0.911,-4.025 1.341,-5.846 0.384,-1.677 0.769,-3.351 1.823,-6.707 l 1.371,-4.685 c -2.878,1.673 -5.842,2.435 -8.413,2.893 m 7.71,21.723 -7.232,0 -10.924,-33.393 6.997,0 1.83,6.162 c 2.545,-0.234 7.878,-0.87 12.591,-6.01 l 0.045,-0.152 7.187,0 -10.494,33.393 z"
         id="path3561"
         style="fill:#006cb7;fill-opacity:1;fill-rule:nonzero;stroke:none"
         inkscape:connector-curvature="0" /></g></g></svg>