<?xml version="1.0" encoding="UTF-8" standalone="no"?>
<!-- Created with Inkscape (http://www.inkscape.org/) -->
<svg
   xmlns:dc="http://purl.org/dc/elements/1.1/"
   xmlns:cc="http://creativecommons.org/ns#"
   xmlns:rdf="http://www.w3.org/1999/02/22-rdf-syntax-ns#"
   xmlns:svg="http://www.w3.org/2000/svg"
   xmlns="http://www.w3.org/2000/svg"
   xmlns:sodipodi="http://sodipodi.sourceforge.net/DTD/sodipodi-0.dtd"
   xmlns:inkscape="http://www.inkscape.org/namespaces/inkscape"
   version="1.0"
   width="219.68442"
   height="100.3794"
   id="svg2489"
   xml:space="preserve"
   sodipodi:version="0.32"
   inkscape:version="0.46"
   sodipodi:docname="Wizz Air logo.svg"
   inkscape:output_extension="org.inkscape.output.svg.inkscape"><metadata
     id="metadata2511"><rdf:RDF><cc:Work
         rdf:about=""><dc:format>image/svg+xml</dc:format><dc:type
           rdf:resource="http://purl.org/dc/dcmitype/StillImage" /></cc:Work></rdf:RDF></metadata><sodipodi:namedview
     inkscape:window-height="773"
     inkscape:window-width="1270"
     inkscape:pageshadow="2"
     inkscape:pageopacity="0.0"
     guidetolerance="10.0"
     gridtolerance="10.0"
     objecttolerance="10.0"
     borderopacity="1.0"
     bordercolor="#666666"
     pagecolor="#ffffff"
     id="base"
     showgrid="false"
     inkscape:zoom="2.5217993"
     inkscape:cx="109.84221"
     inkscape:cy="17.706069"
     inkscape:window-x="0"
     inkscape:window-y="0"
     inkscape:current-layer="svg2489" /><defs
     id="defs2492"><inkscape:perspective
       sodipodi:type="inkscape:persp3d"
       inkscape:vp_x="0 : 50.189701 : 1"
       inkscape:vp_y="0 : 1000 : 0"
       inkscape:vp_z="219.68442 : 50.189701 : 1"
       inkscape:persp3d-origin="109.84221 : 33.459801 : 1"
       id="perspective2513" /><inkscape:perspective
       id="perspective2522"
       inkscape:persp3d-origin="372.04724 : 350.78739 : 1"
       inkscape:vp_z="744.09448 : 526.18109 : 1"
       inkscape:vp_y="0 : 1000 : 0"
       inkscape:vp_x="0 : 526.18109 : 1"
       sodipodi:type="inkscape:persp3d" /></defs><g
     transform="matrix(1.25,0,0,-1.25,-10.63008,170.6625)"
     id="g2498"><path
       d="M 134.18352,124.14552 L 184.2516,124.14552 L 149.47032,79.30128 L 174.3348,79.30128 L 172.3032,66.67512 L 122.71872,66.67512 L 156.58128,111.51936 L 134.18352,111.51936 L 134.18352,124.14552"
       id="path2504"
       style="fill:#c6037c;fill-opacity:1;fill-rule:evenodd;stroke:none" /><path
       d="M 96.35352,130.53096 L 150.82416,130.53096 L 111.78552,80.55936 L 133.21584,80.55936 L 122.71872,66.67512 L 82.47,66.67512 L 119.91288,116.64744 L 93.01584,116.6952 L 96.35352,130.53096"
       id="path2506"
       style="fill:#660f6f;fill-opacity:1;fill-rule:evenodd;stroke:none" /><path
       d="M 89.91936,79.35 L 76.37448,79.35 L 85.61448,136.53 L 99.25584,136.53 L 89.91936,79.35"
       id="path2508"
       style="fill:#c6037c;fill-opacity:1;fill-rule:evenodd;stroke:none" /><path
       d="M 80.87352,73.73808 C 85.6632,73.73808 89.58096,69.82032 89.58096,64.98192 C 89.58096,60.14448 85.6632,56.22648 80.87352,56.22648 C 76.03584,56.22648 72.11712,60.14448 72.11712,64.98192 C 72.11712,69.82032 76.03584,73.73808 80.87352,73.73808"
       id="path2510"
       style="fill:#c6037c;fill-opacity:1;fill-rule:evenodd;stroke:none" /><path
       d="M 8.504064,127.33776 L 16.002192,66.67512 L 27.51552,66.67512 L 44.7852,101.07 L 47.34936,66.67512 L 58.66968,66.67512 L 88.75872,127.33776 L 71.87616,127.33776 L 57.36288,94.6848 L 55.0416,127.33776 L 41.78616,127.33776 L 26.40288,94.6848 L 23.887512,127.33776 L 8.504064,127.33776"
       id="path2512"
       style="fill:#660f6f;fill-opacity:1;fill-rule:evenodd;stroke:none" /></g></svg>